<svg width="16" height="16" viewBox="0 0 16 16" fill="none" xmlns="http://www.w3.org/2000/svg">
<path d="M11.0982 7.32493H8.61949V4.84625C8.61949 4.50418 8.34249 4.22656 7.9998 4.22656C7.65712 4.22656 7.38012 4.50418 7.38012 4.84625V7.32493H4.90143C4.55874 7.32493 4.28174 7.60256 4.28174 7.94462C4.28174 8.28668 4.55874 8.56431 4.90143 8.56431H7.38012V11.043C7.38012 11.3851 7.65712 11.6627 7.9998 11.6627C8.34249 11.6627 8.61949 11.3851 8.61949 11.043V8.56431H11.0982C11.4408 8.56431 11.7178 8.28668 11.7178 7.94462C11.7178 7.60256 11.4408 7.32493 11.0982 7.32493Z" fill="#2F49CF"/>
<path d="M8 0C3.58853 0 0 3.58853 0 8C0 12.4115 3.58853 16 8 16C12.4115 16 16 12.4108 16 8C16 3.58916 12.4115 0 8 0ZM8 14.7607C4.27266 14.7607 1.23934 11.728 1.23934 8C1.23934 4.27203 4.27266 1.23934 8 1.23934C11.7273 1.23934 14.7607 4.27203 14.7607 8C14.7607 11.728 11.728 14.7607 8 14.7607Z" fill="#2F49CF"/>
</svg>
