<svg width="18" height="18" viewBox="0 0 18 18" fill="none" xmlns="http://www.w3.org/2000/svg">
<path d="M12.4857 8.24012H9.69711V5.45161C9.69711 5.06678 9.38548 4.75446 8.99996 4.75446C8.61444 4.75446 8.30282 5.06678 8.30282 5.45161V8.24012H5.51429C5.12876 8.24012 4.81714 8.55246 4.81714 8.93727C4.81714 9.32209 5.12876 9.63442 5.51429 9.63442H8.30282V12.4229C8.30282 12.8078 8.61444 13.1201 8.99996 13.1201C9.38548 13.1201 9.69711 12.8078 9.69711 12.4229V9.63442H12.4857C12.8711 9.63442 13.1827 9.32209 13.1827 8.93727C13.1827 8.55246 12.8711 8.24012 12.4857 8.24012Z" fill="#4BC645"/>
<path d="M9 0C4.0371 0 0 4.0371 0 9C0 13.9629 4.0371 18 9 18C13.9629 18 18 13.9621 18 9C18 4.0378 13.9629 0 9 0ZM9 16.6058C4.80674 16.6058 1.39426 13.194 1.39426 9C1.39426 4.80603 4.80674 1.39426 9 1.39426C13.1932 1.39426 16.6058 4.80603 16.6058 9C16.6058 13.194 13.194 16.6058 9 16.6058Z" fill="#4BC645"/>
</svg>
