<svg width="16" height="16" viewBox="0 0 16 16" fill="none" xmlns="http://www.w3.org/2000/svg">
<path d="M8 1.66669C4.50812 1.66669 1.66667 4.50814 1.66667 8.00002C1.66667 11.4919 4.50812 14.3334 8 14.3334C11.4919 14.3334 14.3333 11.4919 14.3333 8.00002C14.3333 4.50814 11.4919 1.66669 8 1.66669ZM8 2.66669C10.9514 2.66669 13.3333 5.04858 13.3333 8.00002C13.3333 10.9515 10.9514 13.3334 8 13.3334C5.04856 13.3334 2.66667 10.9515 2.66667 8.00002C2.66667 5.04858 5.04856 2.66669 8 2.66669ZM1.00195 4.87697C0.985243 4.87635 0.968512 4.87657 0.951823 4.87762C0.853732 4.88332 0.759494 4.91779 0.680875 4.97672C0.602256 5.03566 0.542743 5.11645 0.509766 5.209C0.186559 6.07621 0 7.0153 0 8.00002C0 8.98474 0.186559 9.92383 0.509766 10.791C0.531917 10.8536 0.566305 10.9112 0.610925 10.9603C0.655545 11.0094 0.709504 11.0492 0.769655 11.0773C0.829806 11.1054 0.894945 11.1212 0.961274 11.1238C1.0276 11.1265 1.09379 11.1159 1.15598 11.0927C1.21817 11.0695 1.27512 11.0341 1.32351 10.9886C1.37189 10.9432 1.41074 10.8886 1.43779 10.828C1.46485 10.7673 1.47956 10.7019 1.48107 10.6356C1.48259 10.5692 1.47087 10.5032 1.44661 10.4414C1.16182 9.67729 1 8.85864 1 8.00002C1 7.1414 1.16182 6.32275 1.44661 5.55861C1.47559 5.48447 1.48645 5.40449 1.47829 5.32531C1.47013 5.24613 1.44318 5.17004 1.39969 5.10337C1.3562 5.0367 1.29742 4.98138 1.22824 4.942C1.15906 4.90262 1.08148 4.88033 1.00195 4.87697ZM15.0332 4.87697C14.9507 4.87467 14.8689 4.89282 14.7951 4.92981C14.7213 4.96681 14.6578 5.0215 14.6103 5.08899C14.5628 5.15649 14.5327 5.2347 14.5228 5.31665C14.5129 5.39859 14.5234 5.48172 14.5534 5.55861C14.8382 6.32275 15 7.1414 15 8.00002C15 8.85864 14.8382 9.67729 14.5534 10.4414C14.5291 10.5032 14.5174 10.5692 14.5189 10.6356C14.5204 10.7019 14.5352 10.7673 14.5622 10.828C14.5893 10.8886 14.6281 10.9432 14.6765 10.9886C14.7249 11.0341 14.7818 11.0695 14.844 11.0927C14.9062 11.1159 14.9724 11.1265 15.0387 11.1238C15.1051 11.1212 15.1702 11.1054 15.2303 11.0773C15.2905 11.0492 15.3445 11.0094 15.3891 10.9603C15.4337 10.9112 15.4681 10.8536 15.4902 10.791C15.8134 9.92383 16 8.98474 16 8.00002C16 7.0153 15.8134 6.07621 15.4902 5.209C15.4564 5.11404 15.3947 5.03152 15.3131 4.97227C15.2315 4.91302 15.134 4.8798 15.0332 4.87697ZM7.99219 4.99286C7.85969 4.99493 7.73344 5.0495 7.64115 5.1446C7.54887 5.23969 7.4981 5.36752 7.5 5.50002V8.50002C7.49906 8.56628 7.5113 8.63206 7.53601 8.69354C7.56072 8.75503 7.5974 8.81099 7.64392 8.85817C7.69044 8.90536 7.74588 8.94282 7.80701 8.9684C7.86814 8.99397 7.93374 9.00714 8 9.00714C8.06626 9.00714 8.13186 8.99397 8.19299 8.9684C8.25412 8.94282 8.30956 8.90536 8.35608 8.85817C8.4026 8.81099 8.43928 8.75503 8.46399 8.69354C8.4887 8.63206 8.50094 8.56628 8.5 8.50002V5.50002C8.50096 5.4331 8.48848 5.36666 8.46329 5.30466C8.4381 5.24265 8.40072 5.18633 8.35336 5.13903C8.30601 5.09174 8.24964 5.05443 8.1876 5.02932C8.12556 5.00421 8.05911 4.99181 7.99219 4.99286V4.99286ZM8 9.66669C7.82319 9.66669 7.65362 9.73692 7.5286 9.86195C7.40357 9.98697 7.33333 10.1565 7.33333 10.3334C7.33333 10.5102 7.40357 10.6797 7.5286 10.8048C7.65362 10.9298 7.82319 11 8 11C8.17681 11 8.34638 10.9298 8.4714 10.8048C8.59643 10.6797 8.66667 10.5102 8.66667 10.3334C8.66667 10.1565 8.59643 9.98697 8.4714 9.86195C8.34638 9.73692 8.17681 9.66669 8 9.66669Z" fill="#FA4747"/>
</svg>
