<svg width="16" height="16" viewBox="0 0 16 16" fill="none" xmlns="http://www.w3.org/2000/svg">
<path d="M2.88889 0C1.30136 0 0 1.30136 0 2.88889V13.1111C0 14.6986 1.30136 16 2.88889 16H13.1111C14.6986 16 16 14.6986 16 13.1111V2.88889C16 1.30136 14.6986 0 13.1111 0H2.88889ZM2.88889 1.33333H13.1111C13.9778 1.33333 14.6667 2.02219 14.6667 2.88889V3.55556H1.33333V2.88889C1.33333 2.02219 2.02219 1.33333 2.88889 1.33333ZM1.33333 4.88889H14.6667V13.1111C14.6667 13.9778 13.9778 14.6667 13.1111 14.6667H2.88889C2.02219 14.6667 1.33333 13.9778 1.33333 13.1111V4.88889ZM4.22222 6.66667C3.92754 6.66667 3.64492 6.78373 3.43655 6.9921C3.22817 7.20048 3.11111 7.48309 3.11111 7.77778C3.11111 8.07246 3.22817 8.35508 3.43655 8.56345C3.64492 8.77183 3.92754 8.88889 4.22222 8.88889C4.51691 8.88889 4.79952 8.77183 5.0079 8.56345C5.21627 8.35508 5.33333 8.07246 5.33333 7.77778C5.33333 7.48309 5.21627 7.20048 5.0079 6.9921C4.79952 6.78373 4.51691 6.66667 4.22222 6.66667ZM8 6.66667C7.70532 6.66667 7.4227 6.78373 7.21433 6.9921C7.00595 7.20048 6.88889 7.48309 6.88889 7.77778C6.88889 8.07246 7.00595 8.35508 7.21433 8.56345C7.4227 8.77183 7.70532 8.88889 8 8.88889C8.29469 8.88889 8.5773 8.77183 8.78567 8.56345C8.99405 8.35508 9.11111 8.07246 9.11111 7.77778C9.11111 7.48309 8.99405 7.20048 8.78567 6.9921C8.5773 6.78373 8.29469 6.66667 8 6.66667V6.66667ZM11.7778 6.66667C11.4831 6.66667 11.2005 6.78373 10.9921 6.9921C10.7837 7.20048 10.6667 7.48309 10.6667 7.77778C10.6667 8.07246 10.7837 8.35508 10.9921 8.56345C11.2005 8.77183 11.4831 8.88889 11.7778 8.88889C12.0725 8.88889 12.3551 8.77183 12.5635 8.56345C12.7718 8.35508 12.8889 8.07246 12.8889 7.77778C12.8889 7.48309 12.7718 7.20048 12.5635 6.9921C12.3551 6.78373 12.0725 6.66667 11.7778 6.66667ZM4.22222 10.6667C3.92754 10.6667 3.64492 10.7837 3.43655 10.9921C3.22817 11.2005 3.11111 11.4831 3.11111 11.7778C3.11111 12.0725 3.22817 12.3551 3.43655 12.5635C3.64492 12.7718 3.92754 12.8889 4.22222 12.8889C4.51691 12.8889 4.79952 12.7718 5.0079 12.5635C5.21627 12.3551 5.33333 12.0725 5.33333 11.7778C5.33333 11.4831 5.21627 11.2005 5.0079 10.9921C4.79952 10.7837 4.51691 10.6667 4.22222 10.6667ZM8 10.6667C7.70532 10.6667 7.4227 10.7837 7.21433 10.9921C7.00595 11.2005 6.88889 11.4831 6.88889 11.7778C6.88889 12.0725 7.00595 12.3551 7.21433 12.5635C7.4227 12.7718 7.70532 12.8889 8 12.8889C8.29469 12.8889 8.5773 12.7718 8.78567 12.5635C8.99405 12.3551 9.11111 12.0725 9.11111 11.7778C9.11111 11.4831 8.99405 11.2005 8.78567 10.9921C8.5773 10.7837 8.29469 10.6667 8 10.6667V10.6667Z" fill="#2F49CF"/>
</svg>
