<svg width="16" height="16" viewBox="0 0 16 16" fill="none" xmlns="http://www.w3.org/2000/svg">
<path d="M10.5605 7.732L8.5 9.79299V4.5C8.5 4.224 8.276 4 8 4C7.724 4 7.5 4.224 7.5 4.5V9.79299L5.4395 7.7325C5.244 7.53699 4.9275 7.53699 4.7325 7.7325C4.53699 7.928 4.53699 8.2445 4.7325 8.43948L7.56099 11.268C7.68099 11.388 7.84499 11.425 8.00052 11.3975C8.15553 11.425 8.32003 11.3875 8.44003 11.268L11.2685 8.43948C11.464 8.24397 11.464 7.9275 11.2685 7.7325C11.0725 7.53699 10.756 7.53699 10.5605 7.732ZM8 0C3.58201 0 0 3.58149 0 8C0 12.4185 3.58201 16 8 16C12.418 16 16 12.418 16 8C16 3.58201 12.4185 0 8 0ZM8 15C4.13399 15 1 11.866 1 8C1 4.13399 4.13399 1 8 1C11.866 1 15 4.13399 15 8C15 11.866 11.866 15 8 15Z" fill="white"/>
</svg>
