<svg width="23" height="25" viewBox="0 0 23 25" fill="none" xmlns="http://www.w3.org/2000/svg">
<path d="M17.0564 10.3732L12.8378 6.15451C12.7393 6.056 12.6049 6 12.4648 6H5.08203C4.2097 6 3.5 6.7097 3.5 7.58203V22.418C3.5 23.2903 4.2097 24 5.08203 24H15.6289C16.5012 24 17.2109 23.2903 17.2109 22.418V10.7461C17.2109 10.6023 17.1506 10.4673 17.0564 10.3732ZM12.9922 7.80046L15.4105 10.2188H13.5195C13.2288 10.2188 12.9922 9.98218 12.9922 9.69141V7.80046ZM15.6289 22.9453H5.08203C4.79125 22.9453 4.55469 22.7087 4.55469 22.418V7.58203C4.55469 7.29125 4.79125 7.05469 5.08203 7.05469H11.9375V9.69141C11.9375 10.5637 12.6472 11.2734 13.5195 11.2734H16.1562V22.418C16.1562 22.7087 15.9197 22.9453 15.6289 22.9453Z" fill="#2F49CF"/>
<path d="M13.3555 13.4531H7.02734C6.73611 13.4531 6.5 13.6892 6.5 13.9805C6.5 14.2717 6.73611 14.5078 7.02734 14.5078H13.3555C13.6467 14.5078 13.8828 14.2717 13.8828 13.9805C13.8828 13.6892 13.6467 13.4531 13.3555 13.4531Z" fill="#2F49CF"/>
<path d="M13.3555 16.5078H7.02734C6.73611 16.5078 6.5 16.7439 6.5 17.0352C6.5 17.3264 6.73611 17.5625 7.02734 17.5625H13.3555C13.6467 17.5625 13.8828 17.3264 13.8828 17.0352C13.8828 16.7439 13.6467 16.5078 13.3555 16.5078Z" fill="#2F49CF"/>
<path d="M11.2461 19.5625H7.02734C6.73611 19.5625 6.5 19.7986 6.5 20.0898C6.5 20.3811 6.73611 20.6172 7.02734 20.6172H11.2461C11.5373 20.6172 11.7734 20.3811 11.7734 20.0898C11.7734 19.7986 11.5373 19.5625 11.2461 19.5625Z" fill="#2F49CF"/>
<circle cx="16" cy="7" r="7" fill="white"/>
<path d="M16.0001 1.55566C12.9979 1.55566 10.5557 3.99792 10.5557 7.00011C10.5557 10.0023 12.9979 12.4446 16.0001 12.4446C19.0023 12.4446 21.4446 10.0023 21.4446 7.00011C21.4446 3.99792 19.0023 1.55566 16.0001 1.55566ZM18.7595 5.84635L15.8104 8.79537C15.722 8.88385 15.6058 8.92838 15.4897 8.92838C15.3736 8.92838 15.2574 8.88385 15.1689 8.79537L13.6944 7.32086C13.517 7.1435 13.517 6.85672 13.6944 6.67935C13.8718 6.5019 14.1585 6.5019 14.3359 6.67935L15.4897 7.83311L18.118 5.20484C18.2954 5.02739 18.5821 5.02739 18.7595 5.20484C18.9369 5.38221 18.9369 5.6689 18.7595 5.84635V5.84635Z" fill="#4BC645"/>
</svg>
