<svg width="15" height="19" viewBox="0 0 15 19" fill="none" xmlns="http://www.w3.org/2000/svg">
<path d="M14.3704 4.54222L10.1517 0.323579C10.0533 0.225071 9.91887 0.169067 9.77881 0.169067H2.396C1.52366 0.169067 0.813965 0.878767 0.813965 1.7511V16.587C0.813965 17.4594 1.52366 18.1691 2.396 18.1691H12.9429C13.8152 18.1691 14.5249 17.4594 14.5249 16.587V4.91516C14.5249 4.77137 14.4645 4.63634 14.3704 4.54222ZM10.3062 1.96952L12.7244 4.38782H10.8335C10.5427 4.38782 10.3062 4.15125 10.3062 3.86047V1.96952ZM12.9429 17.1144H2.396C2.10522 17.1144 1.86865 16.8778 1.86865 16.587V1.7511C1.86865 1.46032 2.10522 1.22375 2.396 1.22375H9.25146V3.86047C9.25146 4.73281 9.96116 5.4425 10.8335 5.4425H13.4702V16.587C13.4702 16.8778 13.2336 17.1144 12.9429 17.1144Z" fill="#2F49CF"/>
<path d="M10.6694 7.62219H4.34131C4.05007 7.62219 3.81396 7.8583 3.81396 8.14954C3.81396 8.44077 4.05007 8.67688 4.34131 8.67688H10.6694C10.9607 8.67688 11.1968 8.44077 11.1968 8.14954C11.1968 7.8583 10.9607 7.62219 10.6694 7.62219Z" fill="#2F49CF"/>
<path d="M10.6694 10.6769H4.34131C4.05007 10.6769 3.81396 10.913 3.81396 11.2042C3.81396 11.4955 4.05007 11.7316 4.34131 11.7316H10.6694C10.9607 11.7316 11.1968 11.4955 11.1968 11.2042C11.1968 10.913 10.9607 10.6769 10.6694 10.6769Z" fill="#2F49CF"/>
<path d="M8.56006 13.7316H4.34131C4.05007 13.7316 3.81396 13.9677 3.81396 14.2589C3.81396 14.5501 4.05007 14.7863 4.34131 14.7863H8.56006C8.85129 14.7863 9.0874 14.5501 9.0874 14.2589C9.0874 13.9677 8.85129 13.7316 8.56006 13.7316Z" fill="#2F49CF"/>
</svg>
