<svg width="18" height="18" viewBox="0 0 18 18" fill="none" xmlns="http://www.w3.org/2000/svg">
<path d="M11.8806 8.6985L9.5625 11.0171V5.0625C9.5625 4.752 9.3105 4.5 9 4.5C8.6895 4.5 8.4375 4.752 8.4375 5.0625V11.0171L6.11944 8.69906C5.8995 8.47912 5.54344 8.47912 5.32406 8.69906C5.10412 8.919 5.10412 9.27506 5.32406 9.49441L8.50612 12.6765C8.64112 12.8115 8.82562 12.8531 9.00059 12.8221C9.17497 12.8531 9.36003 12.8109 9.49503 12.6765L12.6771 9.49441C12.897 9.27447 12.897 8.91844 12.6771 8.69906C12.4566 8.47912 12.1005 8.47912 11.8806 8.6985ZM9 0C4.02976 0 0 4.02918 0 9C0 13.9708 4.02976 18 9 18C13.9702 18 18 13.9702 18 9C18 4.02976 13.9708 0 9 0ZM9 16.875C4.65074 16.875 1.125 13.3493 1.125 9C1.125 4.65074 4.65074 1.125 9 1.125C13.3493 1.125 16.875 4.65074 16.875 9C16.875 13.3493 13.3493 16.875 9 16.875Z" fill="#2F49CF"/>
</svg>
