<svg width="14" height="14" viewBox="0 0 14 14" fill="none" xmlns="http://www.w3.org/2000/svg">
<path d="M12.688 3.62619L11.7622 4.55197L9.44776 2.23467L10.3735 1.30889C10.5621 1.12031 10.8907 1.12031 11.0793 1.30889L12.688 2.92043C12.8823 3.11473 12.8823 3.43189 12.688 3.62619ZM4.95316 11.3696L2.63871 9.05228L8.62198 3.06044L10.9364 5.37774L4.95316 11.3696V11.3696ZM2.10439 10.1695L3.83594 11.9039L1.42434 12.584L2.10439 10.1695ZM13.5138 2.09466L11.9051 0.483118C11.5908 0.168811 10.4564 -0.425516 9.55062 0.483118L1.39863 8.64083C1.32719 8.71226 1.27576 8.79798 1.25004 8.89513L0.0213874 13.2697C-0.0357594 13.4726 0.0242447 13.6897 0.169969 13.8412C0.318551 13.9926 0.615714 14.0183 0.741437 13.9898L5.11317 12.7583C5.21032 12.7325 5.29604 12.6811 5.36747 12.6097L13.5138 4.45196C14.1624 3.80335 14.1624 2.74613 13.5138 2.09466V2.09466Z" fill="#2F49CF"/>
</svg>
