<svg width="14" height="10" viewBox="0 0 14 10" fill="none" xmlns="http://www.w3.org/2000/svg">
<path d="M7 1.27273C9.41182 1.27273 11.5627 2.62818 12.6127 4.77273C11.5627 6.91727 9.41182 8.27273 7 8.27273C4.58818 8.27273 2.43727 6.91727 1.38727 4.77273C2.43727 2.62818 4.58818 1.27273 7 1.27273ZM7 0C3.81818 0 1.10091 1.97909 0 4.77273C1.10091 7.56636 3.81818 9.54546 7 9.54546C10.1818 9.54546 12.8991 7.56636 14 4.77273C12.8991 1.97909 10.1818 0 7 0ZM7 3.18182C7.87818 3.18182 8.59091 3.89455 8.59091 4.77273C8.59091 5.65091 7.87818 6.36364 7 6.36364C6.12182 6.36364 5.40909 5.65091 5.40909 4.77273C5.40909 3.89455 6.12182 3.18182 7 3.18182ZM7 1.90909C5.42182 1.90909 4.13636 3.19455 4.13636 4.77273C4.13636 6.35091 5.42182 7.63636 7 7.63636C8.57818 7.63636 9.86364 6.35091 9.86364 4.77273C9.86364 3.19455 8.57818 1.90909 7 1.90909Z" fill="#2F49CF"/>
</svg>
