<svg width="12" height="13" viewBox="0 0 12 13" fill="none" xmlns="http://www.w3.org/2000/svg">
<path d="M5.66547 2.86282e-05C5.64102 0.000629547 5.61665 0.00302312 5.59255 0.00719009H1.83995C0.833355 0.00719009 0.00661293 0.833932 0.00661293 1.84052V7.75849C-0.00220431 7.81217 -0.00220431 7.86692 0.00661293 7.9206V10.1739C0.00661293 11.1804 0.833355 12.0072 1.83995 12.0072H5.59125C5.64492 12.016 5.69968 12.016 5.75336 12.0072H9.50661C10.5132 12.0072 11.3399 11.1804 11.3399 10.1739V7.92255C11.3488 7.86888 11.3488 7.81412 11.3399 7.76044V1.84052C11.3399 0.833932 10.5132 0.00719009 9.50661 0.00719009H5.75531C5.72564 0.00210338 5.69557 -0.000293498 5.66547 2.86282e-05V2.86282e-05ZM1.83995 1.00719H5.17328V3.67386H1.00661V1.84052C1.00661 1.37445 1.37387 1.00719 1.83995 1.00719ZM6.17328 1.00719H9.50661C9.97269 1.00719 10.3399 1.37445 10.3399 1.84052V3.67386H6.17328V1.00719ZM1.00661 4.67386H5.17328V7.34052H1.00661V4.67386ZM6.17328 4.67386H10.3399V7.34052H6.17328V4.67386ZM1.00661 8.34052H5.17328V11.0072H1.83995C1.37387 11.0072 1.00661 10.6399 1.00661 10.1739V8.34052ZM6.17328 8.34052H10.3399V10.1739C10.3399 10.6399 9.97269 11.0072 9.50661 11.0072H6.17328V8.34052Z" fill="white"/>
</svg>
