<svg width="26" height="26" viewBox="0 0 26 26" fill="none" xmlns="http://www.w3.org/2000/svg">
<path d="M8.63281 9.49167H9.41406V10.2728C9.41406 10.5964 9.67641 10.8587 10 10.8587C10.3236 10.8587 10.5859 10.5964 10.5859 10.2728V9.49167H11.3672C11.6908 9.49167 11.9531 9.22937 11.9531 8.90581C11.9531 8.58226 11.6908 8.31995 11.3672 8.31995H10.5859V7.53874C10.5859 7.21519 10.3236 6.95288 10 6.95288C9.67641 6.95288 9.41406 7.21519 9.41406 7.53874V8.31991H8.63281C8.30922 8.31991 8.04688 8.58222 8.04688 8.90577C8.04688 9.22933 8.30922 9.49167 8.63281 9.49167V9.49167Z" fill="#2F49CF"/>
<path d="M19.4141 8.31996H13.9062V6.40156C13.9062 5.62875 13.2774 5 12.5045 5H7.49547C6.72258 5 6.09375 5.62875 6.09375 6.40156V8.32H0.585938C0.262344 8.32 0 8.5823 0 8.90586V24.4141C0 24.7377 0.262344 25 0.585938 25H19.4141C19.7377 25 20 24.7377 20 24.4141C20 23.827 20 9.49402 20 8.90586C20 8.5823 19.7377 8.31996 19.4141 8.31996V8.31996ZM18.8281 9.49172V11.6399H13.9062V9.49172H18.8281ZM7.26562 6.40156C7.26562 6.27484 7.36875 6.17176 7.49547 6.17176H12.5045C12.6312 6.17176 12.7344 6.27484 12.7344 6.40156V11.64H7.26562C7.26562 11.5263 7.26562 6.51289 7.26562 6.40156ZM1.17188 9.49172H6.09375V11.6399H1.17188V9.49172ZM9.42629 16.1952V23.8282H7.04461V16.1952H9.42629ZM12.9554 16.1952V23.8282H10.5982V16.1952H12.9554ZM5.87277 23.8282H3.51562V16.1952H5.87277V23.8282ZM14.1272 23.8282V16.1952H16.4844V23.8282H14.1272ZM18.8281 23.8282H17.6562V15.6093C17.6562 15.2857 17.3939 15.0234 17.0703 15.0234H2.92969C2.60609 15.0234 2.34375 15.2857 2.34375 15.6093V23.8282H1.17188V12.8117H18.8281V23.8282Z" fill="#2F49CF"/>
<circle cx="19" cy="7" r="7" fill="white"/>
<path d="M19.0001 1.55566C15.998 1.55566 13.5557 3.99802 13.5557 7.00011C13.5557 10.0022 15.998 12.4446 19.0001 12.4446C22.0022 12.4446 24.4446 10.0022 24.4446 7.00011C24.4446 3.99802 22.0022 1.55566 19.0001 1.55566ZM19.0001 10.1318C18.6948 10.1318 18.4472 9.88425 18.4472 9.57892C18.4472 9.27358 18.6948 9.02605 19.0001 9.02605C19.3054 9.02605 19.553 9.27358 19.553 9.57892C19.553 9.88425 19.3054 10.1318 19.0001 10.1318ZM19.553 7.29372C19.553 7.59905 19.3054 7.84659 19.0001 7.84659C18.6948 7.84659 18.4472 7.59905 18.4472 7.29372V4.38194C18.4472 4.0766 18.6948 3.82907 19.0001 3.82907C19.3054 3.82907 19.553 4.0766 19.553 4.38194V7.29372Z" fill="#FA4747"/>
</svg>
