<svg width="18" height="18" viewBox="0 0 18 18" fill="none" xmlns="http://www.w3.org/2000/svg">
<path d="M9 0C4.02529 0 0 4.02564 0 9C0 13.9747 4.02564 18 9 18C13.9747 18 18 13.9744 18 9C18 4.02529 13.9743 0 9 0ZM9 16.5938C4.80259 16.5938 1.40625 13.1971 1.40625 9C1.40625 4.80259 4.80287 1.40625 9 1.40625C13.1974 1.40625 16.5938 4.80287 16.5938 9C16.5938 13.1974 13.1971 16.5938 9 16.5938Z" fill="#2F49CF"/>
<path d="M9 7.53516C8.61165 7.53516 8.29688 7.84993 8.29688 8.23828V12.7661C8.29688 13.1545 8.61165 13.4692 9 13.4692C9.38835 13.4692 9.70312 13.1545 9.70312 12.7661V8.23828C9.70312 7.84993 9.38835 7.53516 9 7.53516Z" fill="#2F49CF"/>
<path d="M9 6.67383C9.52425 6.67383 9.9492 6.24885 9.9492 5.72461C9.9492 5.20037 9.52425 4.77539 9 4.77539C8.47575 4.77539 8.0508 5.20037 8.0508 5.72461C8.0508 6.24885 8.47575 6.67383 9 6.67383Z" fill="#2F49CF"/>
</svg>
