<svg width="18" height="13" viewBox="0 0 18 13" fill="none" xmlns="http://www.w3.org/2000/svg">
<g clip-path="url(#clip0)">
<path d="M15.7505 0H4.50448C3.88338 0 3.37988 0.503506 3.37988 1.1246C3.37988 1.7457 3.88338 2.24921 4.50448 2.24921H15.7505C16.3716 2.24921 16.8751 1.7457 16.8751 1.1246C16.8751 0.503506 16.3716 0 15.7505 0Z" fill="#242D2E"/>
<path d="M2.25551 1.12475C2.25424 0.826976 2.13493 0.541854 1.92375 0.331905C1.48512 -0.104125 0.776688 -0.104125 0.338057 0.331905C0.126843 0.541854 0.00752957 0.826976 0.00629953 1.12475C-0.00209984 1.1976 -0.00209984 1.27119 0.00629953 1.34405C0.0190216 1.41732 0.0397565 1.48898 0.0681527 1.55772C0.0983413 1.62432 0.134083 1.68828 0.17499 1.7489C0.21537 1.81195 0.262498 1.87039 0.315565 1.92322C0.366735 1.97417 0.423281 2.01944 0.484256 2.05817C0.543473 2.10129 0.607681 2.13717 0.675438 2.16501C0.749978 2.20366 0.829439 2.23206 0.911605 2.24935C0.984458 2.2575 1.05805 2.2575 1.1309 2.24935C1.42787 2.2496 1.71288 2.13236 1.92375 1.92322C1.97681 1.87039 2.02394 1.81195 2.06432 1.7489C2.10523 1.68828 2.14097 1.62432 2.17116 1.55772C2.20704 1.48982 2.23533 1.41816 2.25551 1.34405C2.2639 1.27119 2.2639 1.1976 2.25551 1.12475Z" fill="#242D2E"/>
<path d="M2.25506 6.18578C2.26343 6.11293 2.26343 6.03934 2.25506 5.96648C2.23563 5.89391 2.2073 5.82405 2.17072 5.75843C2.14176 5.68944 2.10595 5.62351 2.06388 5.56163C2.0249 5.49928 1.9776 5.44252 1.9233 5.39294C1.48467 4.95691 0.776248 4.95691 0.337617 5.39294C0.126403 5.60289 0.0070894 5.88801 0.00585938 6.18578C0.00803828 6.33398 0.0366102 6.48057 0.0902046 6.61875C0.11839 6.68528 0.152269 6.74924 0.191419 6.80994C0.234189 6.87105 0.28318 6.9276 0.337617 6.97863C0.387311 7.03282 0.444033 7.08012 0.506308 7.1192C0.565525 7.16236 0.629698 7.19824 0.69749 7.22604C0.766056 7.25489 0.837785 7.27566 0.911165 7.28789C0.983104 7.30402 1.05673 7.31158 1.13046 7.31038C1.20331 7.31878 1.2769 7.31878 1.34976 7.31038C1.42131 7.29812 1.49117 7.27735 1.55781 7.24853C1.62743 7.22091 1.6935 7.18503 1.75461 7.14169C1.81689 7.10261 1.87361 7.05531 1.9233 7.00112C1.9775 6.95143 2.0248 6.8947 2.06388 6.83243C2.10711 6.77325 2.14299 6.70907 2.17072 6.64124C2.20913 6.5666 2.23749 6.48717 2.25506 6.40508C2.26371 6.33223 2.26371 6.25863 2.25506 6.18578Z" fill="#242D2E"/>
<path d="M2.25513 11.2464C2.26346 11.1735 2.26346 11.0999 2.25513 11.0271C2.2357 10.9527 2.20737 10.881 2.17079 10.8134C2.1406 10.7468 2.10486 10.6828 2.06395 10.6222C2.02487 10.5599 1.97756 10.5032 1.92337 10.4535C1.48474 10.0175 0.776317 10.0175 0.337686 10.4535C0.283495 10.5032 0.236191 10.5599 0.197111 10.6222C0.156204 10.6828 0.120462 10.7468 0.0902735 10.8134C0.0611042 10.8818 0.0403341 10.9536 0.0284204 11.0271C0.0125705 11.0991 0.00504972 11.1726 0.00592831 11.2464C0.00719349 11.5441 0.126507 11.8292 0.337686 12.0392C0.38738 12.0934 0.444102 12.1407 0.506377 12.1798C0.565594 12.2229 0.629767 12.2588 0.697559 12.2866C0.766125 12.3155 0.837854 12.3362 0.911234 12.3485C0.983173 12.3646 1.0568 12.3722 1.13053 12.371C1.20338 12.3794 1.27697 12.3794 1.34982 12.371C1.42138 12.3587 1.49124 12.3379 1.55788 12.3091C1.6275 12.2815 1.69357 12.2456 1.75468 12.2023C1.81696 12.1632 1.87368 12.1159 1.92337 12.0617C1.97756 12.012 2.02487 11.9553 2.06395 11.893C2.10721 11.8339 2.14309 11.7696 2.17079 11.7018C2.20916 11.6271 2.23752 11.5477 2.25513 11.4657C2.26378 11.3928 2.26378 11.3192 2.25513 11.2464Z" fill="#242D2E"/>
<path d="M16.8751 5.06006H4.50448C3.88338 5.06006 3.37988 5.56356 3.37988 6.18466C3.37988 6.80576 3.88338 7.30926 4.50448 7.30926H16.8751C17.4962 7.30926 17.9997 6.80576 17.9997 6.18466C17.9997 5.56356 17.4962 5.06006 16.8751 5.06006Z" fill="#242D2E"/>
<path d="M11.8144 10.1211H4.50448C3.88338 10.1211 3.37988 10.6246 3.37988 11.2457C3.37988 11.8668 3.88338 12.3703 4.50448 12.3703H11.8144C12.4355 12.3703 12.939 11.8668 12.939 11.2457C12.939 10.6246 12.4355 10.1211 11.8144 10.1211Z" fill="#242D2E"/>
</g>
<defs>
<clipPath id="clip0">
<rect width="18" height="13" fill="white"/>
</clipPath>
</defs>
</svg>
