<svg width="14" height="14" viewBox="0 0 14 14" fill="none" xmlns="http://www.w3.org/2000/svg">
<path d="M7 0C3.1403 0 0 3.1403 0 7C0 10.8597 3.1403 14 7 14C9.22213 14 11.2055 12.9581 12.4865 11.3401C12.5297 11.2861 12.5617 11.2241 12.5808 11.1577C12.6 11.0913 12.6058 11.0217 12.598 10.9531C12.5901 10.8844 12.5688 10.8179 12.5353 10.7575C12.5017 10.6971 12.4565 10.6439 12.4023 10.6009C12.3482 10.558 12.286 10.5262 12.2195 10.5073C12.153 10.4885 12.0835 10.4829 12.0148 10.491C11.9462 10.4991 11.8798 10.5207 11.8195 10.5545C11.7592 10.5883 11.7062 10.6336 11.6635 10.688C10.5729 12.0653 8.89457 12.95 7 12.95C3.7078 12.95 1.05 10.2922 1.05 7C1.05 3.7078 3.7078 1.05 7 1.05C8.89457 1.05 10.5729 1.93466 11.6635 3.31201C11.7062 3.36636 11.7592 3.41173 11.8195 3.44553C11.8798 3.47933 11.9462 3.5009 12.0148 3.50899C12.0835 3.51707 12.153 3.51153 12.2195 3.49266C12.286 3.4738 12.3482 3.44199 12.4023 3.39907C12.4565 3.35614 12.5017 3.30294 12.5353 3.24251C12.5688 3.18208 12.5901 3.11563 12.598 3.04695C12.6058 2.97827 12.6 2.90872 12.5808 2.84229C12.5617 2.77587 12.5297 2.71387 12.4865 2.65986C11.2055 1.04191 9.22213 0 7 0ZM11.3695 4.36953C11.265 4.36956 11.1629 4.40075 11.0763 4.45913C10.9896 4.51751 10.9224 4.60041 10.8831 4.69723C10.8438 4.79405 10.8343 4.90039 10.8558 5.00264C10.8773 5.10488 10.9289 5.19839 11.0038 5.27119L12.2069 6.47432L5.07568 6.46816C5.00612 6.46709 4.93703 6.47986 4.87245 6.50572C4.80786 6.53158 4.74905 6.57002 4.69945 6.6188C4.64984 6.66759 4.61043 6.72574 4.5835 6.78989C4.55656 6.85404 4.54265 6.9229 4.54255 6.99247C4.54246 7.06204 4.5562 7.13094 4.58297 7.19516C4.60974 7.25938 4.649 7.31763 4.69848 7.36655C4.74795 7.41546 4.80666 7.45405 4.87118 7.48008C4.9357 7.50611 5.00475 7.51905 5.07432 7.51816L12.2083 7.52432L11.0038 8.72881C10.9534 8.77718 10.9132 8.83513 10.8855 8.89925C10.8578 8.96336 10.8431 9.03236 10.8424 9.10221C10.8417 9.17206 10.8549 9.24134 10.8814 9.30601C10.9078 9.37068 10.9468 9.42943 10.9962 9.47882C11.0456 9.52821 11.1043 9.56725 11.169 9.59365C11.2337 9.62005 11.3029 9.63328 11.3728 9.63257C11.4426 9.63186 11.5116 9.61722 11.5758 9.58951C11.6399 9.5618 11.6978 9.52158 11.7462 9.47119L13.8462 7.37119C13.9446 7.27273 13.9999 7.13921 13.9999 7C13.9999 6.86078 13.9446 6.72727 13.8462 6.62881L11.7462 4.52881C11.6973 4.47841 11.6387 4.43835 11.574 4.41099C11.5093 4.38363 11.4398 4.36953 11.3695 4.36953V4.36953Z" fill="white"/>
</svg>
