<svg width="18" height="13" viewBox="0 0 18 13" fill="none" xmlns="http://www.w3.org/2000/svg">
<path d="M15.7509 0H4.50485C3.88375 0 3.38025 0.503506 3.38025 1.1246C3.38025 1.7457 3.88375 2.24921 4.50485 2.24921H15.7509C16.372 2.24921 16.8755 1.7457 16.8755 1.1246C16.8755 0.503506 16.372 0 15.7509 0Z" fill="#2F49CF"/>
<path d="M2.25551 1.12463C2.25424 0.826854 2.13493 0.541732 1.92375 0.331783C1.48512 -0.104247 0.776688 -0.104247 0.338057 0.331783C0.126843 0.541732 0.00752957 0.826854 0.00629953 1.12463C-0.00209984 1.19748 -0.00209984 1.27107 0.00629953 1.34393C0.0190216 1.4172 0.0397565 1.48886 0.0681527 1.5576C0.0983413 1.6242 0.134083 1.68816 0.17499 1.74878C0.21537 1.81183 0.262498 1.87027 0.315565 1.9231C0.366735 1.97405 0.423281 2.01932 0.484256 2.05805C0.543473 2.10117 0.607681 2.13705 0.675438 2.16489C0.749978 2.20354 0.829439 2.23194 0.911605 2.24923C0.984458 2.25738 1.05805 2.25738 1.1309 2.24923C1.42787 2.24948 1.71288 2.13224 1.92375 1.9231C1.97681 1.87027 2.02394 1.81183 2.06432 1.74878C2.10523 1.68816 2.14097 1.6242 2.17116 1.5576C2.20704 1.4897 2.23533 1.41804 2.25551 1.34393C2.2639 1.27107 2.2639 1.19748 2.25551 1.12463Z" fill="#2F49CF"/>
<path d="M2.25543 6.18554C2.2638 6.11269 2.2638 6.0391 2.25543 5.96624C2.236 5.89367 2.20767 5.82381 2.17109 5.75819C2.14213 5.6892 2.10632 5.62327 2.06425 5.56139C2.02527 5.49904 1.97797 5.44228 1.92367 5.3927C1.48504 4.95667 0.776614 4.95667 0.337983 5.3927C0.126769 5.60265 0.00745562 5.88777 0.00622559 6.18554C0.0084045 6.33374 0.0369764 6.48033 0.0905708 6.61851C0.118756 6.68504 0.152635 6.749 0.191785 6.8097C0.234555 6.87081 0.283546 6.92736 0.337983 6.97839C0.387677 7.03258 0.444399 7.07988 0.506674 7.11896C0.565891 7.16212 0.630064 7.198 0.697856 7.2258C0.766422 7.25465 0.838151 7.27542 0.911531 7.28765C0.98347 7.30378 1.0571 7.31134 1.13083 7.31014C1.20368 7.31854 1.27727 7.31854 1.35013 7.31014C1.42168 7.29788 1.49154 7.27711 1.55818 7.24829C1.6278 7.22067 1.69387 7.18479 1.75498 7.14145C1.81726 7.10237 1.87398 7.05507 1.92367 7.00088C1.97787 6.95119 2.02517 6.89446 2.06425 6.83219C2.10748 6.77301 2.14336 6.70883 2.17109 6.641C2.2095 6.56636 2.23786 6.48693 2.25543 6.40484C2.26408 6.33199 2.26408 6.25839 2.25543 6.18554Z" fill="#2F49CF"/>
<path d="M2.2555 11.2465C2.26383 11.1736 2.26383 11.1 2.2555 11.0272C2.23607 10.9528 2.20774 10.8811 2.17116 10.8135C2.14097 10.7469 2.10523 10.6829 2.06432 10.6223C2.02524 10.56 1.97793 10.5033 1.92374 10.4536C1.48511 10.0176 0.776683 10.0176 0.338052 10.4536C0.283861 10.5033 0.236557 10.56 0.197477 10.6223C0.15657 10.6829 0.120828 10.7469 0.0906397 10.8135C0.0614704 10.8819 0.0407003 10.9537 0.0287866 11.0272C0.0129367 11.0992 0.00541593 11.1727 0.00629452 11.2465C0.0075597 11.5442 0.126873 11.8293 0.338052 12.0393C0.387746 12.0935 0.444468 12.1408 0.506743 12.1799C0.56596 12.223 0.630133 12.2589 0.697925 12.2867C0.766491 12.3156 0.83822 12.3363 0.9116 12.3486C0.983539 12.3647 1.05717 12.3723 1.1309 12.3711C1.20375 12.3795 1.27734 12.3795 1.35019 12.3711C1.42175 12.3588 1.49161 12.338 1.55825 12.3092C1.62787 12.2816 1.69394 12.2457 1.75505 12.2024C1.81733 12.1633 1.87405 12.116 1.92374 12.0618C1.97793 12.0121 2.02524 11.9554 2.06432 11.8931C2.10758 11.834 2.14346 11.7697 2.17116 11.7019C2.20953 11.6272 2.23789 11.5478 2.2555 11.4658C2.26415 11.3929 2.26415 11.3193 2.2555 11.2465Z" fill="#2F49CF"/>
<path d="M16.8755 5.06006H4.50485C3.88375 5.06006 3.38025 5.56356 3.38025 6.18466C3.38025 6.80576 3.88375 7.30926 4.50485 7.30926H16.8755C17.4966 7.30926 18.0001 6.80576 18.0001 6.18466C18.0001 5.56356 17.4966 5.06006 16.8755 5.06006Z" fill="#2F49CF"/>
<path d="M11.8148 10.121H4.50485C3.88375 10.121 3.38025 10.6245 3.38025 11.2456C3.38025 11.8667 3.88375 12.3702 4.50485 12.3702H11.8148C12.4359 12.3702 12.9394 11.8667 12.9394 11.2456C12.9394 10.6245 12.4359 10.121 11.8148 10.121Z" fill="#2F49CF"/>
</svg>
