<svg width="12" height="12" viewBox="0 0 12 12" fill="none" xmlns="http://www.w3.org/2000/svg">
<path d="M1.5 0C0.6775 0 0 0.6775 0 1.5V10.5C0 11.3225 0.6775 12 1.5 12H7.83333C7.96593 12 8.09309 11.9473 8.18685 11.8535C8.1886 11.8518 8.19033 11.8501 8.19206 11.8483L11.8535 8.18685C11.9473 8.09309 12 7.96593 12 7.83333V1.5C12 0.6775 11.3225 0 10.5 0H1.5ZM1.5 1H10.5C10.7822 1 11 1.21783 11 1.5V7.33333H8.83333C8.01083 7.33333 7.33333 8.01083 7.33333 8.83333V11H1.5C1.21783 11 1 10.7822 1 10.5V1.5C1 1.21783 1.21783 1 1.5 1ZM3.16667 2.66602C3.10041 2.66508 3.03463 2.67732 2.97315 2.70203C2.91166 2.72673 2.8557 2.76341 2.80852 2.80994C2.76133 2.85646 2.72386 2.91189 2.69829 2.97302C2.67272 3.03415 2.65955 3.09975 2.65955 3.16602C2.65955 3.23228 2.67272 3.29788 2.69829 3.35901C2.72386 3.42014 2.76133 3.47557 2.80852 3.5221C2.8557 3.56862 2.91166 3.6053 2.97315 3.63001C3.03463 3.65471 3.10041 3.66695 3.16667 3.66602H8.83333C8.89959 3.66695 8.96537 3.65471 9.02686 3.63001C9.08834 3.6053 9.1443 3.56862 9.19148 3.5221C9.23867 3.47557 9.27614 3.42014 9.30171 3.35901C9.32728 3.29788 9.34045 3.23228 9.34045 3.16602C9.34045 3.09975 9.32728 3.03415 9.30171 2.97302C9.27614 2.91189 9.23867 2.85646 9.19148 2.80994C9.1443 2.76341 9.08834 2.72673 9.02686 2.70203C8.96537 2.67732 8.89959 2.66508 8.83333 2.66602H3.16667ZM3.16667 4.99935C3.10041 4.99841 3.03463 5.01065 2.97315 5.03536C2.91166 5.06007 2.8557 5.09675 2.80852 5.14327C2.76133 5.18979 2.72386 5.24523 2.69829 5.30636C2.67272 5.36748 2.65955 5.43309 2.65955 5.49935C2.65955 5.56561 2.67272 5.63121 2.69829 5.69234C2.72386 5.75347 2.76133 5.80891 2.80852 5.85543C2.8557 5.90195 2.91166 5.93863 2.97315 5.96334C3.03463 5.98805 3.10041 6.00029 3.16667 5.99935H7.5C7.56626 6.00029 7.63204 5.98805 7.69352 5.96334C7.75501 5.93863 7.81097 5.90195 7.85815 5.85543C7.90534 5.80891 7.9428 5.75347 7.96838 5.69234C7.99395 5.63121 8.00712 5.56561 8.00712 5.49935C8.00712 5.43309 7.99395 5.36748 7.96838 5.30636C7.9428 5.24523 7.90534 5.18979 7.85815 5.14327C7.81097 5.09675 7.75501 5.06007 7.69352 5.03536C7.63204 5.01065 7.56626 4.99841 7.5 4.99935H3.16667ZM8.83333 8.33333H10.293L8.33333 10.293V8.83333C8.33333 8.55117 8.55117 8.33333 8.83333 8.33333Z" fill="white"/>
</svg>
