<svg width="48" height="48" viewBox="0 0 48 48" fill="none" xmlns="http://www.w3.org/2000/svg">
<path d="M32.5752 17.8309L26.9504 12.206C26.8191 12.0747 26.6399 12 26.4531 12H16.6094C15.4463 12 14.5 12.9463 14.5 14.1094V33.8906C14.5 35.0537 15.4463 36 16.6094 36H30.6719C31.835 36 32.7812 35.0537 32.7812 33.8906V18.3281C32.7812 18.1364 32.7008 17.9564 32.5752 17.8309ZM27.1562 14.4006L30.3806 17.625H27.8594C27.4717 17.625 27.1562 17.3096 27.1562 16.9219V14.4006ZM30.6719 34.5938H16.6094C16.2217 34.5938 15.9062 34.2783 15.9062 33.8906V14.1094C15.9062 13.7217 16.2217 13.4062 16.6094 13.4062H25.75V16.9219C25.75 18.085 26.6963 19.0312 27.8594 19.0312H31.375V33.8906C31.375 34.2783 31.0596 34.5938 30.6719 34.5938Z" fill="#2F49CF"/>
<path d="M27.6406 21.9375H19.2031C18.8148 21.9375 18.5 22.2523 18.5 22.6406C18.5 23.0289 18.8148 23.3438 19.2031 23.3438H27.6406C28.0289 23.3438 28.3438 23.0289 28.3438 22.6406C28.3438 22.2523 28.0289 21.9375 27.6406 21.9375Z" fill="#2F49CF"/>
<path d="M27.6406 26.0104H19.2031C18.8148 26.0104 18.5 26.3252 18.5 26.7136C18.5 27.1019 18.8148 27.4167 19.2031 27.4167H27.6406C28.0289 27.4167 28.3438 27.1019 28.3438 26.7136C28.3438 26.3252 28.0289 26.0104 27.6406 26.0104Z" fill="#2F49CF"/>
<path d="M24.8281 30.0833H19.2031C18.8148 30.0833 18.5 30.3981 18.5 30.7864C18.5 31.1748 18.8148 31.4896 19.2031 31.4896H24.8281C25.2164 31.4896 25.5312 31.1748 25.5312 30.7864C25.5312 30.3981 25.2164 30.0833 24.8281 30.0833Z" fill="#2F49CF"/>
<rect x="1" y="1" width="46" height="46" rx="23" stroke="#2F49CF" stroke-width="2"/>
</svg>
