<svg width="12" height="13" viewBox="0 0 12 13" fill="none" xmlns="http://www.w3.org/2000/svg">
<path d="M2.82552 2.86282e-05C2.80107 0.000629547 2.7767 0.00302312 2.7526 0.00719009H1.83333C0.826742 0.00719009 0 0.833932 0 1.84052V10.1739C0 11.1804 0.826742 12.0072 1.83333 12.0072H2.41797C2.47165 12.016 2.5264 12.016 2.58008 12.0072H9.41797C9.47165 12.016 9.5264 12.016 9.58008 12.0072H10.1667C11.1733 12.0072 12 11.1804 12 10.1739V3.17386C12 3.10324 11.985 3.03343 11.956 2.96901C11.9271 2.9046 11.8848 2.84706 11.832 2.80016L8.83203 0.133492C8.74054 0.0521722 8.62241 0.00723346 8.5 0.00719009H8.2487C8.19502 -0.00162715 8.14027 -0.00162715 8.08659 0.00719009H2.91536C2.88569 0.00210338 2.85562 -0.000293498 2.82552 2.86282e-05V2.86282e-05ZM1.83333 1.00719H2.33333V2.84052C2.33333 3.47884 2.86168 4.00719 3.5 4.00719H7.5C8.13832 4.00719 8.66667 3.47884 8.66667 2.84052V1.32425L11 3.39847V10.1739C11 10.6399 10.6327 11.0072 10.1667 11.0072H10V7.17386C10 6.53554 9.47165 6.00719 8.83333 6.00719H3.16667C2.52835 6.00719 2 6.53554 2 7.17386V11.0072H1.83333C1.36726 11.0072 1 10.6399 1 10.1739V1.84052C1 1.37445 1.36726 1.00719 1.83333 1.00719ZM3.33333 1.00719H7.66667V2.84052C7.66667 2.93887 7.59835 3.00719 7.5 3.00719H3.5C3.40165 3.00719 3.33333 2.93887 3.33333 2.84052V1.00719ZM3.16667 7.00719H8.83333C8.93168 7.00719 9 7.07551 9 7.17386V11.0072H3V7.17386C3 7.07551 3.06832 7.00719 3.16667 7.00719Z" fill="white"/>
</svg>
