<svg width="18" height="17" viewBox="0 0 18 17" fill="none" xmlns="http://www.w3.org/2000/svg">
<path d="M7.44056 0.5C3.89143 0.5 1 3.39143 1 6.94056C1 10.4897 3.89143 13.3811 7.44056 13.3811C8.97579 13.3811 10.3871 12.8388 11.4954 11.9375L15.853 16.2952C15.9144 16.3591 15.988 16.4102 16.0693 16.4453C16.1507 16.4805 16.2383 16.4991 16.3269 16.5C16.4155 16.5009 16.5035 16.4841 16.5855 16.4506C16.6676 16.4171 16.7422 16.3675 16.8048 16.3048C16.8675 16.2422 16.9171 16.1676 16.9506 16.0855C16.9841 16.0035 17.0009 15.9155 17 15.8269C16.9991 15.7383 16.9805 15.6507 16.9453 15.5693C16.9102 15.488 16.8591 15.4144 16.7952 15.353L12.4375 10.9954C13.3388 9.8871 13.8811 8.47579 13.8811 6.94056C13.8811 3.39143 10.9897 0.5 7.44056 0.5ZM7.44056 1.83253C10.2695 1.83253 12.5486 4.11158 12.5486 6.94056C12.5486 8.31867 12.005 9.56374 11.1232 10.481C11.0689 10.5209 11.0209 10.5689 10.981 10.6232C10.0637 11.505 8.81867 12.0486 7.44056 12.0486C4.61158 12.0486 2.33253 9.76954 2.33253 6.94056C2.33253 4.11158 4.61158 1.83253 7.44056 1.83253Z" fill="#242D2E" stroke="#242D2E" stroke-width="0.5"/>
</svg>
