<svg width="21" height="20" viewBox="0 0 21 20" fill="none" xmlns="http://www.w3.org/2000/svg">
<path d="M15.2385 0C14.8118 0 14.3854 0.05175 13.9524 0.15625C13.6414 0.23075 13.4111 0.495477 13.3801 0.813477L13.3596 1.02441C13.3361 1.26491 13.198 1.48056 12.9885 1.60156C12.779 1.72206 12.5229 1.73577 12.3039 1.63477L12.1096 1.54688C11.8201 1.41537 11.4751 1.48089 11.2551 1.71289C10.6561 2.34289 10.2091 3.11343 9.96508 3.94043C9.87408 4.24693 9.98876 4.5767 10.2493 4.7627L10.4241 4.8877C10.6206 5.0292 10.7385 5.25752 10.7385 5.49902C10.7385 5.62702 10.7038 5.75038 10.6438 5.85938L10.7375 6.4375L11.4592 6.16406C11.6572 6.08956 11.8644 6.05176 12.0754 6.05176C12.1029 6.05176 12.13 6.05905 12.1575 6.06055C12.2055 5.87805 12.2385 5.69152 12.2385 5.49902C12.2385 4.89602 11.995 4.32134 11.5735 3.90234C11.6935 3.62784 11.8457 3.36652 12.0247 3.12402C12.5977 3.27952 13.2165 3.20287 13.7385 2.90137C14.2605 2.59987 14.6373 2.10087 14.7893 1.52637C15.0938 1.49037 15.3837 1.49037 15.6887 1.52637C15.8402 2.10087 16.216 2.59987 16.7385 2.90137C17.26 3.20337 17.8784 3.27952 18.4524 3.12402C18.6314 3.36602 18.7836 3.62784 18.9036 3.90234C18.4821 4.32184 18.2385 4.89602 18.2385 5.49902C18.2385 6.10202 18.4821 6.6767 18.9036 7.0957C18.7836 7.3702 18.6314 7.63152 18.4524 7.87402C17.8794 7.71852 17.2605 7.79518 16.7385 8.09668C16.216 8.39818 15.8397 8.89718 15.6877 9.47168C15.5157 9.49218 15.3489 9.49762 15.1809 9.49512C15.2664 9.72012 15.3449 9.94673 15.4104 10.1777C15.4864 10.4462 15.4931 10.7228 15.4426 10.9863C15.7991 10.9723 16.1616 10.9293 16.5256 10.8418C16.8361 10.7673 17.0659 10.5026 17.0969 10.1846L17.1174 9.97266C17.1409 9.73216 17.279 9.51748 17.4885 9.39648C17.6985 9.27648 17.9546 9.26328 18.1731 9.36328L18.3674 9.45117C18.6569 9.58367 19.0024 9.51766 19.2219 9.28516C19.8209 8.65516 20.268 7.88462 20.512 7.05762C20.603 6.75062 20.4883 6.42085 20.2278 6.23535L20.053 6.11035C19.8565 5.96885 19.7385 5.74052 19.7385 5.49902C19.7385 5.25752 19.856 5.02967 20.052 4.88867L20.2278 4.7627C20.4883 4.5772 20.603 4.24743 20.512 3.94043C20.268 3.11343 19.8209 2.34289 19.2219 1.71289C19.0019 1.48039 18.6564 1.41438 18.3674 1.54688L18.1741 1.63477C17.9531 1.73477 17.6975 1.72106 17.4885 1.60156C17.279 1.48056 17.1409 1.26539 17.1174 1.02539L17.0969 0.813477C17.0659 0.494977 16.8357 0.23075 16.5247 0.15625C16.0917 0.05175 15.6653 0 15.2385 0ZM15.2385 3.49902C14.6344 3.49902 14.0863 3.75259 13.7405 4.1416C13.3947 4.53061 13.2385 5.01986 13.2385 5.49902C13.2385 5.97819 13.3947 6.46743 13.7405 6.85645C14.0863 7.24546 14.6344 7.49902 15.2385 7.49902C15.8427 7.49902 16.3908 7.24546 16.7366 6.85645C17.0824 6.46743 17.2385 5.97819 17.2385 5.49902C17.2385 5.01986 17.0824 4.53061 16.7366 4.1416C16.3908 3.75259 15.8427 3.49902 15.2385 3.49902ZM7.23852 4.99902C6.59966 4.99902 5.98724 5.08707 5.40746 5.23242C5.26548 5.26806 5.13703 5.34448 5.03794 5.45224C4.93886 5.56 4.87347 5.6944 4.84985 5.83887L4.72582 6.59766C4.67708 6.89467 4.49871 7.15246 4.23852 7.30273C3.97832 7.45301 3.66713 7.47855 3.385 7.37207L2.66332 7.09863C2.52643 7.04692 2.37741 7.03638 2.2346 7.06831C2.09179 7.10024 1.96145 7.17324 1.85961 7.27832C1.0081 8.15594 0.371349 9.24112 0.0285568 10.4512C-0.011285 10.5919 -0.00912459 10.7412 0.0347722 10.8807C0.078669 11.0202 0.162387 11.1438 0.275627 11.2363L0.872307 11.7246C1.10437 11.9157 1.23852 12.1988 1.23852 12.499C1.23852 12.7997 1.10389 13.083 0.87133 13.2734L0.274651 13.7617C0.161583 13.8544 0.0780548 13.978 0.0343338 14.1175C-0.00938726 14.257 -0.0113952 14.4063 0.0285568 14.5469C0.371782 15.7565 1.00799 16.842 1.85961 17.7197C1.96147 17.8245 2.0917 17.8972 2.2343 17.9289C2.37691 17.9606 2.52568 17.9501 2.66235 17.8984L3.385 17.626C3.66632 17.5197 3.97752 17.5447 4.23852 17.6953C4.49912 17.8457 4.67648 18.1029 4.72485 18.3994L4.84887 19.1582C4.8725 19.3027 4.93788 19.4371 5.03697 19.5448C5.13605 19.6526 5.2645 19.729 5.40649 19.7646C5.98703 19.9106 6.59966 19.999 7.23852 19.999C7.87738 19.999 8.48979 19.911 9.06957 19.7656C9.21156 19.73 9.34001 19.6536 9.43909 19.5458C9.53818 19.4381 9.60356 19.3037 9.62719 19.1592L9.75121 18.4004C9.79995 18.1034 9.97833 17.8456 10.2385 17.6953C10.4987 17.545 10.8099 17.5195 11.092 17.626L11.8137 17.8994C11.9506 17.9511 12.0996 17.9617 12.2424 17.9297C12.3852 17.8978 12.5156 17.8248 12.6174 17.7197C13.4689 16.8421 14.1057 15.7569 14.4485 14.5469C14.4883 14.4062 14.4862 14.2569 14.4423 14.1174C14.3984 13.9779 14.3146 13.8543 14.2014 13.7617L13.6047 13.2734C13.3727 13.0823 13.2385 12.7993 13.2385 12.499C13.2385 12.1983 13.3731 11.9151 13.6057 11.7246L14.2024 11.2363C14.3155 11.1437 14.399 11.02 14.4427 10.8805C14.4864 10.741 14.4884 10.5918 14.4485 10.4512C14.1052 9.23994 13.4647 8.15672 12.6155 7.28027C12.5136 7.17519 12.3833 7.10219 12.2405 7.07026C12.0977 7.03833 11.9486 7.04887 11.8118 7.10059L11.092 7.37207C10.8107 7.47835 10.4985 7.45331 10.2375 7.30273C9.97694 7.15239 9.79958 6.89514 9.75121 6.59863L9.62524 5.83203C9.60168 5.68768 9.53644 5.55337 9.43754 5.44563C9.33864 5.33788 9.2104 5.26139 9.0686 5.22559C8.48347 5.07847 7.8699 4.99902 7.23852 4.99902ZM15.2385 4.99902C15.4677 4.99902 15.5446 5.05796 15.6155 5.1377C15.6863 5.21743 15.7385 5.35319 15.7385 5.49902C15.7385 5.64486 15.6863 5.78061 15.6155 5.86035C15.5446 5.94009 15.4677 5.99902 15.2385 5.99902C15.0094 5.99902 14.9324 5.94009 14.8616 5.86035C14.7907 5.78061 14.7385 5.64486 14.7385 5.49902C14.7385 5.35319 14.7907 5.21743 14.8616 5.1377C14.9324 5.05796 15.0094 4.99902 15.2385 4.99902ZM7.23852 6.49902C7.58292 6.49902 7.90753 6.56701 8.23559 6.62305L8.27074 6.84082C8.3916 7.57993 8.83938 8.22804 9.48852 8.60254C10.1375 8.97696 10.9216 9.04011 11.6223 8.77539L11.8225 8.7002C12.2488 9.21432 12.5848 9.7929 12.8215 10.4287L12.6555 10.5645C12.6552 10.5645 12.6549 10.5645 12.6545 10.5645C12.0751 11.039 11.7385 11.7497 11.7385 12.499C11.7385 13.2483 12.0753 13.9587 12.6536 14.4336C12.6539 14.4339 12.6542 14.4342 12.6545 14.4346L12.8215 14.5713C12.5852 15.2077 12.2498 15.7866 11.8245 16.2998L11.6223 16.2227C10.9214 15.9581 10.1363 16.0218 9.48754 16.3965C8.83873 16.7712 8.39201 17.4182 8.27074 18.1572C8.27074 18.1576 8.27074 18.1579 8.27074 18.1582L8.23559 18.3711C7.90618 18.4291 7.57939 18.499 7.23852 18.499C6.89732 18.499 6.57017 18.4293 6.24047 18.3711L6.20531 18.1582V18.1572C6.08446 17.4181 5.63765 16.77 4.98852 16.3955C4.33952 16.0211 3.55541 15.9579 2.85473 16.2227L2.6516 16.2988C2.22643 15.7855 1.89094 15.2071 1.65453 14.5703L1.82153 14.4336C1.82185 14.4336 1.82218 14.4336 1.8225 14.4336C2.40195 13.959 2.73852 13.2483 2.73852 12.499C2.73852 11.7497 2.40176 11.0393 1.82348 10.5645C1.82315 10.5641 1.82283 10.5638 1.8225 10.5635L1.65551 10.4268C1.8918 9.79038 2.22728 9.21148 2.65258 8.69824L2.85473 8.77539C3.55561 9.03991 4.34069 8.97628 4.98949 8.60156C5.63831 8.22684 6.08503 7.5798 6.20629 6.84082C6.20629 6.84049 6.20629 6.84017 6.20629 6.83984L6.24145 6.62695C6.57083 6.56895 6.89765 6.49902 7.23852 6.49902ZM7.23852 9.49902C6.30102 9.49902 5.50293 9.87759 4.99047 10.4541C4.47802 11.0306 4.23852 11.7699 4.23852 12.499C4.23852 13.2282 4.47802 13.9674 4.99047 14.5439C5.50293 15.1205 6.30102 15.499 7.23852 15.499C8.17602 15.499 8.97411 15.1205 9.48656 14.5439C9.99902 13.9674 10.2385 13.2282 10.2385 12.499C10.2385 11.7699 9.99902 11.0306 9.48656 10.4541C8.97411 9.87759 8.17602 9.49902 7.23852 9.49902ZM7.23852 10.999C7.80102 10.999 8.12793 11.183 8.36547 11.4502C8.60302 11.7174 8.73852 12.1032 8.73852 12.499C8.73852 12.8949 8.60302 13.2806 8.36547 13.5479C8.12793 13.8151 7.80102 13.999 7.23852 13.999C6.67602 13.999 6.34911 13.8151 6.11156 13.5479C5.87402 13.2806 5.73852 12.8949 5.73852 12.499C5.73852 12.1032 5.87402 11.7174 6.11156 11.4502C6.34911 11.183 6.67602 10.999 7.23852 10.999Z" fill="#B42816"/>
</svg>
