<svg width="24" height="24" viewBox="0 0 24 24" fill="none" xmlns="http://www.w3.org/2000/svg">
<path d="M9.66084 0C4.33714 0 0 4.33714 0 9.66084C0 14.9845 4.33714 19.3217 9.66084 19.3217C11.9637 19.3217 14.0806 18.5082 15.7431 17.1563L22.2795 23.6927C22.3716 23.7887 22.4819 23.8652 22.604 23.918C22.726 23.9707 22.8574 23.9986 22.9903 23.9999C23.1233 24.0013 23.2552 23.9761 23.3783 23.9259C23.5014 23.8756 23.6132 23.8013 23.7073 23.7073C23.8013 23.6132 23.8756 23.5014 23.9259 23.3783C23.9761 23.2552 24.0013 23.1233 23.9999 22.9903C23.9986 22.8574 23.9707 22.726 23.918 22.604C23.8652 22.4819 23.7887 22.3716 23.6927 22.2795L17.1563 15.7431C18.5082 14.0806 19.3217 11.9637 19.3217 9.66084C19.3217 4.33714 14.9845 0 9.66084 0ZM9.66084 1.99879C13.9043 1.99879 17.3229 5.41737 17.3229 9.66084C17.3229 11.728 16.5075 13.5956 15.1849 14.9714C15.1033 15.0314 15.0314 15.1033 14.9714 15.1849C13.5956 16.5075 11.728 17.3229 9.66084 17.3229C5.41737 17.3229 1.99879 13.9043 1.99879 9.66084C1.99879 5.41737 5.41737 1.99879 9.66084 1.99879Z" fill="white"/>
</svg>
