<svg width="19" height="19" viewBox="0 0 19 19" fill="none" xmlns="http://www.w3.org/2000/svg">
<path d="M8.23828 4.29423e-05C8.20194 0.000991809 8.16571 0.00458199 8.12988 0.0107851H2.75C1.24011 0.0107851 0 1.2509 0 2.76079V15.2608C0 16.7707 1.24011 18.0108 2.75 18.0108H8.12695C8.20747 18.024 8.2896 18.024 8.37012 18.0108H16.25C17.7599 18.0108 19 16.7707 19 15.2608V2.76079C19 1.2509 17.7599 0.0107851 16.25 0.0107851H8.37305C8.32854 0.00315507 8.28344 -0.000440246 8.23828 4.29423e-05ZM2.75 1.51079H7.5V8.87602C7.48634 8.95781 7.48634 9.0413 7.5 9.12309V16.5108H2.75C2.05089 16.5108 1.5 15.9599 1.5 15.2608V2.76079C1.5 2.06167 2.05089 1.51079 2.75 1.51079ZM9 1.51079H16.25C16.9491 1.51079 17.5 2.06167 17.5 2.76079V15.2608C17.5 15.9599 16.9491 16.5108 16.25 16.5108H9V9.75297L11.9414 9.75883L10.9697 10.7305C10.8977 10.7996 10.8403 10.8824 10.8007 10.974C10.7611 11.0656 10.7402 11.1642 10.7392 11.2639C10.7382 11.3637 10.7571 11.4627 10.7948 11.5551C10.8325 11.6475 10.8883 11.7314 10.9588 11.802C11.0294 11.8725 11.1133 11.9283 11.2057 11.966C11.2981 12.0037 11.3971 12.0226 11.4968 12.0216C11.5966 12.0206 11.6952 11.9997 11.7868 11.9601C11.8784 11.9205 11.9612 11.863 12.0303 11.7911L14.2803 9.54106C14.4209 9.4004 14.4999 9.20966 14.4999 9.01079C14.4999 8.81191 14.4209 8.62117 14.2803 8.48051L12.0303 6.23051C11.9604 6.15852 11.8767 6.10129 11.7843 6.0622C11.6919 6.02312 11.5925 6.00298 11.4922 6.00297C11.3429 6.00301 11.1971 6.04758 11.0733 6.13097C10.9495 6.21437 10.8534 6.3328 10.7973 6.47112C10.7412 6.60943 10.7276 6.76134 10.7584 6.90741C10.7891 7.05348 10.8627 7.18706 10.9697 7.29106L11.9375 8.25883L9 8.25297V1.51079ZM3.25 3.01079C3.15062 3.00938 3.05194 3.02774 2.95972 3.0648C2.86749 3.10186 2.78355 3.15688 2.71277 3.22667C2.642 3.29645 2.58579 3.3796 2.54743 3.4713C2.50907 3.56299 2.48932 3.66139 2.48932 3.76079C2.48932 3.86018 2.50907 3.95858 2.54743 4.05027C2.58579 4.14197 2.642 4.22512 2.71277 4.29491C2.78355 4.36469 2.86749 4.41971 2.95972 4.45677C3.05194 4.49383 3.15062 4.51219 3.25 4.51079H5.75C5.84938 4.51219 5.94806 4.49383 6.04028 4.45677C6.13251 4.41971 6.21645 4.36469 6.28723 4.29491C6.358 4.22512 6.41421 4.14197 6.45257 4.05027C6.49093 3.95858 6.51068 3.86018 6.51068 3.76079C6.51068 3.66139 6.49093 3.56299 6.45257 3.4713C6.41421 3.3796 6.358 3.29645 6.28723 3.22667C6.21645 3.15688 6.13251 3.10186 6.04028 3.0648C5.94806 3.02774 5.84938 3.00938 5.75 3.01079H3.25ZM3.25 5.51079C3.15062 5.50938 3.05194 5.52774 2.95972 5.5648C2.86749 5.60186 2.78355 5.65688 2.71277 5.72667C2.642 5.79645 2.58579 5.8796 2.54743 5.9713C2.50907 6.06299 2.48932 6.16139 2.48932 6.26079C2.48932 6.36018 2.50907 6.45858 2.54743 6.55027C2.58579 6.64197 2.642 6.72512 2.71277 6.7949C2.78355 6.86469 2.86749 6.91971 2.95972 6.95677C3.05194 6.99383 3.15062 7.01219 3.25 7.01079H5.75C5.84938 7.01219 5.94806 6.99383 6.04028 6.95677C6.13251 6.91971 6.21645 6.86469 6.28723 6.7949C6.358 6.72512 6.41421 6.64197 6.45257 6.55027C6.49093 6.45858 6.51068 6.36018 6.51068 6.26079C6.51068 6.16139 6.49093 6.06299 6.45257 5.9713C6.41421 5.8796 6.358 5.79645 6.28723 5.72667C6.21645 5.65688 6.13251 5.60186 6.04028 5.5648C5.94806 5.52774 5.84938 5.50938 5.75 5.51079H3.25ZM3.25 8.01079C3.15062 8.00938 3.05194 8.02774 2.95972 8.0648C2.86749 8.10186 2.78355 8.15688 2.71277 8.22667C2.642 8.29645 2.58579 8.3796 2.54743 8.4713C2.50907 8.56299 2.48932 8.66139 2.48932 8.76079C2.48932 8.86018 2.50907 8.95858 2.54743 9.05027C2.58579 9.14197 2.642 9.22512 2.71277 9.2949C2.78355 9.36469 2.86749 9.41971 2.95972 9.45677C3.05194 9.49383 3.15062 9.51219 3.25 9.51079H5.75C5.84938 9.51219 5.94806 9.49383 6.04028 9.45677C6.13251 9.41971 6.21645 9.36469 6.28723 9.2949C6.358 9.22512 6.41421 9.14197 6.45257 9.05027C6.49093 8.95858 6.51068 8.86018 6.51068 8.76079C6.51068 8.66139 6.49093 8.56299 6.45257 8.4713C6.41421 8.3796 6.358 8.29645 6.28723 8.22667C6.21645 8.15688 6.13251 8.10186 6.04028 8.0648C5.94806 8.02774 5.84938 8.00938 5.75 8.01079H3.25Z" fill="#B42816"/>
</svg>
