<svg width="13" height="14" viewBox="0 0 13 14" fill="none" xmlns="http://www.w3.org/2000/svg">
<path d="M6.34045 0C5.17102 0 4.19725 0.873811 4.03381 2H1.75322C1.72483 1.99514 1.69608 1.99275 1.66728 1.99284C1.64239 1.99338 1.61759 1.99577 1.59306 2H0.507121C0.440865 1.99906 0.375084 2.0113 0.3136 2.03601C0.252116 2.06072 0.196155 2.0974 0.14897 2.14392C0.101785 2.19044 0.0643174 2.24588 0.0387435 2.30701C0.0131696 2.36814 0 2.43374 0 2.5C0 2.56626 0.0131696 2.63186 0.0387435 2.69299C0.0643174 2.75412 0.101785 2.80956 0.14897 2.85608C0.196155 2.9026 0.252116 2.93928 0.3136 2.96399C0.375084 2.9887 0.440865 3.00094 0.507121 3H1.22001L2.0592 11.6764C2.14956 12.612 2.94438 13.3333 3.88407 13.3333H8.79618C9.73593 13.3333 10.5307 12.6121 10.6211 11.6764L11.4609 3H12.1738C12.24 3.00094 12.3058 2.9887 12.3673 2.96399C12.4288 2.93928 12.4848 2.9026 12.5319 2.85608C12.5791 2.80956 12.6166 2.75412 12.6422 2.69299C12.6677 2.63186 12.6809 2.56626 12.6809 2.5C12.6809 2.43374 12.6677 2.36814 12.6422 2.30701C12.6166 2.24588 12.5791 2.19044 12.5319 2.14392C12.4848 2.0974 12.4288 2.06072 12.3673 2.03601C12.3058 2.0113 12.24 1.99906 12.1738 2H11.0885C11.0355 1.9914 10.9814 1.9914 10.9283 2H8.6471C8.48366 0.873811 7.50989 0 6.34045 0ZM6.34045 1C6.96684 1 7.48071 1.42272 7.62756 2H5.05335C5.2002 1.42272 5.71407 1 6.34045 1ZM2.22392 3H10.4563L9.62561 11.5801C9.58393 12.0118 9.22978 12.3333 8.79618 12.3333H3.88407C3.4511 12.3333 3.09629 12.0112 3.05465 11.5801L2.22392 3ZM5.16598 4.6595C5.03348 4.66157 4.90723 4.71615 4.81494 4.81124C4.72266 4.90634 4.67189 5.03417 4.67379 5.16667V10.1667C4.67285 10.2329 4.68509 10.2987 4.7098 10.3602C4.73451 10.4217 4.77119 10.4776 4.81771 10.5248C4.86423 10.572 4.91967 10.6095 4.9808 10.635C5.04192 10.6606 5.10753 10.6738 5.17379 10.6738C5.24005 10.6738 5.30565 10.6606 5.36678 10.635C5.42791 10.6095 5.48335 10.572 5.52987 10.5248C5.57639 10.4776 5.61307 10.4217 5.63778 10.3602C5.66248 10.2987 5.67473 10.2329 5.67379 10.1667V5.16667C5.67475 5.09974 5.66226 5.03331 5.63708 4.9713C5.61189 4.90929 5.57451 4.85297 5.52715 4.80568C5.4798 4.75838 5.42343 4.72108 5.36139 4.69597C5.29935 4.67086 5.2329 4.65846 5.16598 4.6595V4.6595ZM7.49931 4.6595C7.36681 4.66157 7.24056 4.71615 7.14827 4.81124C7.05599 4.90634 7.00522 5.03417 7.00712 5.16667V10.1667C7.00618 10.2329 7.01843 10.2987 7.04313 10.3602C7.06784 10.4217 7.10452 10.4776 7.15104 10.5248C7.19756 10.572 7.253 10.6095 7.31413 10.635C7.37526 10.6606 7.44086 10.6738 7.50712 10.6738C7.57338 10.6738 7.63899 10.6606 7.70011 10.635C7.76124 10.6095 7.81668 10.572 7.8632 10.5248C7.90972 10.4776 7.9464 10.4217 7.97111 10.3602C7.99582 10.2987 8.00806 10.2329 8.00712 10.1667V5.16667C8.00808 5.09974 7.9956 5.03331 7.97041 4.9713C7.94522 4.90929 7.90784 4.85297 7.86048 4.80568C7.81313 4.75838 7.75676 4.72108 7.69472 4.69597C7.63268 4.67086 7.56623 4.65846 7.49931 4.6595V4.6595Z" fill="white"/>
</svg>
