<svg width="16" height="16" viewBox="0 0 16 16" fill="none" xmlns="http://www.w3.org/2000/svg">
<path d="M7.60855 0C6.20522 0 5.0367 1.04857 4.84058 2.4H2.10386C2.06979 2.39417 2.03529 2.3913 2.00073 2.39141C1.97087 2.39205 1.9411 2.39492 1.91167 2.4H0.608546C0.529038 2.39888 0.450101 2.41356 0.37632 2.44321C0.302539 2.47286 0.235386 2.51688 0.178764 2.5727C0.122143 2.62853 0.0771808 2.69505 0.0464922 2.76841C0.0158036 2.84176 0 2.92048 0 3C0 3.07952 0.0158036 3.15824 0.0464922 3.23159C0.0771808 3.30495 0.122143 3.37147 0.178764 3.4273C0.235386 3.48312 0.302539 3.52714 0.37632 3.55679C0.450101 3.58644 0.529038 3.60112 0.608546 3.6H1.46401L2.47105 14.0117C2.57948 15.1344 3.53326 16 4.66089 16H10.5554C11.6831 16 12.6369 15.1345 12.7453 14.0117L13.7531 3.6H14.6085C14.6881 3.60112 14.767 3.58644 14.8408 3.55679C14.9146 3.52714 14.9817 3.48312 15.0383 3.4273C15.0949 3.37147 15.1399 3.30495 15.1706 3.23159C15.2013 3.15824 15.2171 3.07952 15.2171 3C15.2171 2.92048 15.2013 2.84176 15.1706 2.76841C15.1399 2.69505 15.0949 2.62853 15.0383 2.5727C14.9817 2.51688 14.9146 2.47286 14.8408 2.44321C14.767 2.41356 14.6881 2.39888 14.6085 2.4H13.3062C13.2426 2.38967 13.1777 2.38967 13.114 2.4H10.3765C10.1804 1.04857 9.01187 0 7.60855 0ZM7.60855 1.2C8.36021 1.2 8.97685 1.70726 9.15308 2.4H6.06401C6.24024 1.70726 6.85688 1.2 7.60855 1.2ZM2.6687 3.6H12.5476L11.5507 13.8961C11.5007 14.4141 11.0757 14.8 10.5554 14.8H4.66089C4.14132 14.8 3.71555 14.4134 3.66558 13.8961L2.6687 3.6ZM6.19917 5.59141C6.04018 5.59389 5.88867 5.65938 5.77793 5.77349C5.66719 5.8876 5.60627 6.041 5.60855 6.2V12.2C5.60742 12.2795 5.62211 12.3584 5.65176 12.4322C5.68141 12.506 5.72542 12.5732 5.78125 12.6298C5.83708 12.6864 5.9036 12.7314 5.97695 12.7621C6.05031 12.7927 6.12903 12.8085 6.20855 12.8085C6.28806 12.8085 6.36678 12.7927 6.44014 12.7621C6.51349 12.7314 6.58002 12.6864 6.63584 12.6298C6.69167 12.5732 6.73569 12.506 6.76533 12.4322C6.79498 12.3584 6.80967 12.2795 6.80855 12.2V6.2C6.8097 6.11969 6.79472 6.03997 6.76449 5.96556C6.73427 5.89115 6.68941 5.82357 6.63258 5.76681C6.57575 5.71006 6.50811 5.66529 6.43366 5.63516C6.35922 5.60503 6.27948 5.59015 6.19917 5.59141V5.59141ZM8.99917 5.59141C8.84018 5.59389 8.68867 5.65938 8.57793 5.77349C8.46719 5.8876 8.40627 6.041 8.40855 6.2V12.2C8.40742 12.2795 8.42211 12.3584 8.45176 12.4322C8.48141 12.506 8.52542 12.5732 8.58125 12.6298C8.63708 12.6864 8.7036 12.7314 8.77695 12.7621C8.85031 12.7927 8.92903 12.8085 9.00855 12.8085C9.08806 12.8085 9.16678 12.7927 9.24014 12.7621C9.31349 12.7314 9.38002 12.6864 9.43584 12.6298C9.49167 12.5732 9.53569 12.506 9.56533 12.4322C9.59498 12.3584 9.60967 12.2795 9.60855 12.2V6.2C9.6097 6.11969 9.59472 6.03997 9.56449 5.96556C9.53427 5.89115 9.48941 5.82357 9.43258 5.76681C9.37575 5.71006 9.30811 5.66529 9.23366 5.63516C9.15922 5.60503 9.07948 5.59015 8.99917 5.59141V5.59141Z" fill="#FA4747"/>
</svg>
