<svg width="96" height="97" viewBox="0 0 96 97" fill="none" xmlns="http://www.w3.org/2000/svg">
<path d="M66.5439 31.5H35.6515C33.9454 31.5 32.5623 32.8831 32.5623 34.5892C32.5623 36.2954 33.9454 37.6785 35.6515 37.6785H66.5439C68.25 37.6785 69.6332 36.2954 69.6332 34.5892C69.6332 32.8831 68.25 31.5 66.5439 31.5Z" fill="white"/>
<path d="M29.4731 34.5886C29.4697 33.7706 29.1419 32.9874 28.5618 32.4106C27.3569 31.2129 25.4109 31.2129 24.206 32.4106C23.6258 32.9874 23.298 33.7706 23.2946 34.5886C23.2716 34.7887 23.2716 34.9908 23.2946 35.191C23.3296 35.3922 23.3866 35.5891 23.4646 35.7779C23.5475 35.9609 23.6457 36.1366 23.758 36.3031C23.869 36.4763 23.9984 36.6368 24.1442 36.7819C24.2848 36.9219 24.4401 37.0462 24.6076 37.1526C24.7702 37.2711 24.9466 37.3697 25.1327 37.4461C25.3375 37.5523 25.5558 37.6303 25.7815 37.6778C25.9816 37.7002 26.1838 37.7002 26.3839 37.6778C27.1996 37.6785 27.9826 37.3564 28.5618 36.7819C28.7076 36.6368 28.837 36.4763 28.948 36.3031C29.0603 36.1366 29.1585 35.9609 29.2414 35.7779C29.34 35.5914 29.4177 35.3946 29.4731 35.191C29.4962 34.9908 29.4962 34.7887 29.4731 34.5886Z" fill="white"/>
<path d="M29.4729 48.4915C29.4959 48.2914 29.4959 48.0892 29.4729 47.8891C29.4195 47.6898 29.3417 47.4978 29.2412 47.3176C29.1617 47.1281 29.0633 46.947 28.9477 46.777C28.8407 46.6057 28.7107 46.4498 28.5616 46.3136C27.3567 45.1158 25.4107 45.1158 24.2058 46.3136C23.6256 46.8903 23.2978 47.6735 23.2944 48.4915C23.3004 48.8986 23.3789 49.3013 23.5261 49.6809C23.6036 49.8636 23.6966 50.0393 23.8042 50.206C23.9216 50.3739 24.0562 50.5293 24.2058 50.6694C24.3423 50.8183 24.4981 50.9482 24.6691 51.0556C24.8318 51.1741 25.0081 51.2727 25.1943 51.3491C25.3827 51.4283 25.5797 51.4854 25.7813 51.519C25.9789 51.5633 26.1811 51.584 26.3837 51.5808C26.5838 51.6038 26.786 51.6038 26.9861 51.5808C27.1826 51.5471 27.3746 51.49 27.5576 51.4109C27.7488 51.335 27.9303 51.2364 28.0982 51.1174C28.2693 51.01 28.4251 50.8801 28.5616 50.7312C28.7105 50.5947 28.8404 50.4389 28.9477 50.2678C29.0665 50.1053 29.1651 49.929 29.2412 49.7427C29.3467 49.5376 29.4246 49.3194 29.4729 49.0939C29.4967 48.8938 29.4967 48.6916 29.4729 48.4915Z" fill="white"/>
<path d="M29.4731 62.3935C29.496 62.1934 29.496 61.9912 29.4731 61.7911C29.4197 61.5868 29.3419 61.3898 29.2414 61.2041C29.1585 61.0212 29.0603 60.8455 28.9479 60.679C28.8406 60.5079 28.7106 60.3521 28.5618 60.2156C27.3569 59.0178 25.4109 59.0178 24.2059 60.2156C24.0571 60.3521 23.9271 60.5079 23.8198 60.679C23.7074 60.8455 23.6092 61.0212 23.5263 61.2041C23.4462 61.3922 23.3891 61.5893 23.3564 61.7911C23.3129 61.9889 23.2922 62.191 23.2946 62.3935C23.2981 63.2115 23.6258 63.9947 24.2059 64.5714C24.3425 64.7203 24.4983 64.8502 24.6693 64.9576C24.832 65.0761 25.0083 65.1747 25.1945 65.251C25.3829 65.3303 25.5799 65.3874 25.7815 65.421C25.9791 65.4653 26.1813 65.486 26.3839 65.4827C26.584 65.5058 26.7861 65.5058 26.9863 65.4827C27.1828 65.449 27.3747 65.392 27.5578 65.3128C27.749 65.2369 27.9305 65.1384 28.0984 65.0194C28.2695 64.912 28.4253 64.7821 28.5618 64.6332C28.7106 64.4967 28.8406 64.3409 28.9479 64.1698C29.0668 64.0073 29.1653 63.831 29.2414 63.6446C29.3468 63.4395 29.4247 63.2214 29.4731 62.9959C29.4969 62.7958 29.4969 62.5936 29.4731 62.3935Z" fill="white"/>
<path d="M69.6332 45.3998H35.6515C33.9454 45.3998 32.5623 46.7829 32.5623 48.489C32.5623 50.1952 33.9454 51.5783 35.6515 51.5783H69.6332C71.3393 51.5783 72.7224 50.1952 72.7224 48.489C72.7224 46.7829 71.3393 45.3998 69.6332 45.3998Z" fill="white"/>
<path d="M55.7316 59.3021H35.6515C33.9454 59.3021 32.5623 60.6852 32.5623 62.3914C32.5623 64.0975 33.9454 65.4806 35.6515 65.4806H55.7316C57.4377 65.4806 58.8208 64.0975 58.8208 62.3914C58.8208 60.6852 57.4377 59.3021 55.7316 59.3021Z" fill="white"/>
<rect x="1.5" y="2" width="93" height="93" rx="46.5" stroke="white" stroke-width="3"/>
</svg>
