<svg width="31" height="20" viewBox="0 0 31 20" fill="none" xmlns="http://www.w3.org/2000/svg">
<path d="M15.4732 0C10.6443 0 6.65998 3.68133 6.17644 8.38132H5.80245C2.60466 8.38132 0 10.986 0 14.1838C0 17.3816 2.60466 19.9862 5.80245 19.9862H12.7395C12.6299 19.6832 12.572 19.3609 12.572 19.0192V18.0521H5.80245C3.66844 18.0521 1.93415 16.3178 1.93415 14.1838C1.93415 12.0498 3.66844 10.3155 5.80245 10.3155H7.09189C7.627 10.3155 8.05896 9.88351 8.05896 9.3484C8.05896 5.26089 11.3857 1.93415 15.4732 1.93415C19.5607 1.93415 22.8875 5.26089 22.8875 9.3484C22.8875 9.88351 23.3194 10.3155 23.8545 10.3155H25.144C27.278 10.3155 29.0123 12.0498 29.0123 14.1838C29.0123 16.3178 27.278 18.0521 25.144 18.0521H18.3744V19.0192C18.3744 19.3609 18.3166 19.6832 18.207 19.9862H25.144C28.3418 19.9862 30.9464 17.3816 30.9464 14.1838C30.9464 10.986 28.3418 8.38132 25.144 8.38132H24.77C24.2864 3.68133 20.3021 0 15.4732 0ZM15.4254 7.09315C15.1971 7.1046 14.9803 7.1965 14.8134 7.35254L9.978 11.8656C9.88034 11.9509 9.80085 12.055 9.74424 12.1717C9.68764 12.2884 9.65509 12.4153 9.64853 12.5449C9.64197 12.6744 9.66153 12.8039 9.70604 12.9258C9.75056 13.0476 9.81912 13.1592 9.90766 13.254C9.99619 13.3488 10.1029 13.4248 10.2214 13.4775C10.3399 13.5302 10.4678 13.5586 10.5975 13.5608C10.7272 13.5631 10.856 13.5393 10.9763 13.4908C11.0966 13.4422 11.2059 13.37 11.2977 13.2784L14.5061 10.2853V19.0192C14.5043 19.1473 14.528 19.2745 14.5758 19.3935C14.6236 19.5124 14.6945 19.6206 14.7845 19.7119C14.8745 19.8031 14.9817 19.8756 15.0999 19.9251C15.2182 19.9745 15.345 20 15.4732 20C15.6014 20 15.7283 19.9745 15.8465 19.9251C15.9647 19.8756 16.0719 19.8031 16.1619 19.7119C16.2519 19.6206 16.3228 19.5124 16.3706 19.3935C16.4184 19.2745 16.4421 19.1473 16.4403 19.0192V10.2853L19.6488 13.2784C19.7406 13.37 19.8499 13.4422 19.9701 13.4908C20.0904 13.5393 20.2192 13.5631 20.3489 13.5608C20.4786 13.5586 20.6065 13.5302 20.725 13.4775C20.8435 13.4248 20.9502 13.3488 21.0388 13.254C21.1273 13.1592 21.1959 13.0476 21.2404 12.9258C21.2849 12.8039 21.3044 12.6744 21.2979 12.5449C21.2913 12.4153 21.2588 12.2884 21.2022 12.1717C21.1456 12.055 21.0661 11.9509 20.9684 11.8656L16.133 7.35254C16.0384 7.26414 15.9271 7.19563 15.8055 7.15107C15.6839 7.10651 15.5547 7.08682 15.4254 7.09315Z" fill="#FA4747"/>
</svg>
