<svg width="56" height="56" viewBox="0 0 56 56" fill="none" xmlns="http://www.w3.org/2000/svg">
<path d="M39.0286 43.5192C38.3539 43.5192 37.8071 42.9724 37.8071 42.2978C37.8071 37.5159 33.9167 33.6255 29.1348 33.6255H27.3027C22.5208 33.6255 18.6304 37.5159 18.6304 42.2978C18.6304 42.9724 18.0836 43.5192 17.4089 43.5192C16.7343 43.5192 16.1875 42.9724 16.1875 42.2978C16.1875 36.1689 21.1738 31.1826 27.3027 31.1826H29.1348C35.2637 31.1826 40.25 36.1689 40.25 42.2978C40.25 42.9724 39.7032 43.5192 39.0286 43.5192Z" fill="#2F49CF"/>
<path d="M28.0968 28.7395C23.5507 28.7395 19.8521 25.0409 19.8521 20.4948C19.8521 15.9486 23.5507 12.25 28.0968 12.25C32.643 12.25 36.3416 15.9486 36.3416 20.4948C36.3416 25.0409 32.643 28.7395 28.0968 28.7395ZM28.0968 14.6929C24.8977 14.6929 22.2949 17.2956 22.2949 20.4948C22.2949 23.6939 24.8977 26.2966 28.0968 26.2966C31.296 26.2966 33.8987 23.6939 33.8987 20.4948C33.8987 17.2956 31.296 14.6929 28.0968 14.6929Z" fill="#2F49CF"/>
<rect x="1" y="1" width="54" height="54" rx="27" stroke="#2F49CF" stroke-width="2"/>
</svg>
