<svg width="16" height="11" viewBox="0 0 16 11" fill="none" xmlns="http://www.w3.org/2000/svg">
<path d="M8 0C5.50333 0 3.44336 1.90333 3.19336 4.33333H3C1.34667 4.33333 0 5.68 0 7.33333C0 8.98667 1.34667 10.3333 3 10.3333H6.58659C6.52992 10.1767 6.5 10.01 6.5 9.83333V9.33333H3C1.89667 9.33333 1 8.43667 1 7.33333C1 6.23 1.89667 5.33333 3 5.33333H3.66667C3.94333 5.33333 4.16667 5.11 4.16667 4.83333C4.16667 2.72 5.88667 1 8 1C10.1133 1 11.8333 2.72 11.8333 4.83333C11.8333 5.11 12.0567 5.33333 12.3333 5.33333H13C14.1033 5.33333 15 6.23 15 7.33333C15 8.43667 14.1033 9.33333 13 9.33333H9.5V9.83333C9.5 10.01 9.47008 10.1767 9.41341 10.3333H13C14.6533 10.3333 16 8.98667 16 7.33333C16 5.68 14.6533 4.33333 13 4.33333H12.8066C12.5566 1.90333 10.4967 0 8 0ZM7.97526 3.66732C7.85726 3.67324 7.74517 3.72075 7.65885 3.80143L5.15885 6.13477C5.10836 6.17889 5.06726 6.23273 5.038 6.29307C5.00873 6.3534 4.9919 6.41901 4.98851 6.48598C4.98512 6.55296 4.99523 6.61993 5.01824 6.68291C5.04126 6.7459 5.07671 6.80361 5.12248 6.85262C5.16826 6.90162 5.22342 6.94092 5.28469 6.96818C5.34597 6.99543 5.41209 7.01008 5.47914 7.01126C5.54619 7.01243 5.61279 7.00011 5.67498 6.97503C5.73717 6.94994 5.79368 6.9126 5.84115 6.86523L7.5 5.31771V9.83333C7.49906 9.89959 7.5113 9.96537 7.53601 10.0269C7.56072 10.0883 7.5974 10.1443 7.64392 10.1915C7.69044 10.2387 7.74588 10.2761 7.80701 10.3017C7.86814 10.3273 7.93374 10.3405 8 10.3405C8.06626 10.3405 8.13186 10.3273 8.19299 10.3017C8.25412 10.2761 8.30956 10.2387 8.35608 10.1915C8.4026 10.1443 8.43928 10.0883 8.46399 10.0269C8.4887 9.96537 8.50094 9.89959 8.5 9.83333V5.31771L10.1589 6.86523C10.2063 6.9126 10.2628 6.94994 10.325 6.97503C10.3872 7.00011 10.4538 7.01243 10.5209 7.01126C10.5879 7.01008 10.654 6.99543 10.7153 6.96818C10.7766 6.94092 10.8317 6.90162 10.8775 6.85262C10.9233 6.80361 10.9587 6.7459 10.9818 6.68291C11.0048 6.61993 11.0149 6.55296 11.0115 6.48598C11.0081 6.41901 10.9913 6.3534 10.962 6.29307C10.9327 6.23273 10.8916 6.17889 10.8411 6.13477L8.34115 3.80143C8.29224 3.75573 8.23466 3.7203 8.17181 3.69727C8.10896 3.67423 8.04212 3.66404 7.97526 3.66732V3.66732Z" fill="white"/>
</svg>
