<svg width="96" height="97" viewBox="0 0 96 97" fill="none" xmlns="http://www.w3.org/2000/svg">
<path d="M48 35.75C51.1018 35.75 53.625 33.2268 53.625 30.125C53.625 27.0232 51.1018 24.5 48 24.5C44.8982 24.5 42.375 27.0232 42.375 30.125C42.375 33.2268 44.8982 35.75 48 35.75ZM48 28.25C49.0338 28.25 49.875 29.0912 49.875 30.125C49.875 31.1588 49.0338 32 48 32C46.9662 32 46.125 31.1588 46.125 30.125C46.125 29.0912 46.9662 28.25 48 28.25ZM58.3125 54.3213C58.3125 56.613 57.0916 58.7693 55.1265 59.9485L54.991 60.0298C54.1483 60.5355 53.625 61.4595 53.625 62.4417V70.625C53.625 71.6606 52.7856 72.5 51.75 72.5C50.7144 72.5 49.875 71.6606 49.875 70.625V62.4417C49.875 60.1499 51.0959 57.9937 53.061 56.8145L53.1965 56.7332C54.0392 56.2278 54.5625 55.3035 54.5625 54.3213V45.9688C54.5625 42.0946 50.9681 41.2812 47.9531 41.2812C44.9381 41.2812 41.3438 42.0946 41.3438 45.9688V54.2942C41.3438 55.2866 41.8751 56.2153 42.7302 56.7185L42.8895 56.8123C44.8854 57.9863 46.125 60.1536 46.125 62.4688V70.625C46.125 71.6606 45.2856 72.5 44.25 72.5C43.2144 72.5 42.375 71.6606 42.375 70.625V62.4688C42.375 61.4763 41.8436 60.5476 40.9885 60.0448L40.8292 59.951C38.8334 58.777 37.5938 56.6094 37.5938 54.2942V45.9688C37.5938 43.1442 38.7341 40.8674 40.8918 39.385C42.657 38.1721 45.0989 37.5312 47.9531 37.5312C50.8074 37.5312 53.2493 38.1721 55.0144 39.385C57.1721 40.8674 58.3125 43.1442 58.3125 45.9688V54.3213ZM33.375 39.5C36.4768 39.5 39 36.9768 39 33.875C39 30.7732 36.4768 28.25 33.375 28.25C30.2732 28.25 27.75 30.7732 27.75 33.875C27.75 36.9768 30.2732 39.5 33.375 39.5ZM33.375 32C34.4088 32 35.25 32.8412 35.25 33.875C35.25 34.9088 34.4088 35.75 33.375 35.75C32.3412 35.75 31.5 34.9088 31.5 33.875C31.5 32.8412 32.3412 32 33.375 32ZM39 64.0625V70.625C39 71.6606 38.1606 72.5 37.125 72.5C36.0894 72.5 35.25 71.6606 35.25 70.625V64.0625C35.25 63.0269 36.0894 62.1875 37.125 62.1875C38.1606 62.1875 39 63.0269 39 64.0625ZM35.0625 43.2031C35.0625 44.2388 34.2231 45.0781 33.1875 45.0781C27.75 45.0781 27.75 47.6321 27.75 48.5938V56.5625C27.75 57.4432 28.1704 58.2841 28.875 58.8125C30.5186 60.0452 31.5 62.0081 31.5 64.0625V70.625C31.5 71.6606 30.6606 72.5 29.625 72.5C28.5894 72.5 27.75 71.6606 27.75 70.625V64.0625C27.75 63.1818 27.3296 62.3409 26.625 61.8125C24.9814 60.5798 24 58.6169 24 56.5625V48.5938C24 46.0592 25.0408 44.0564 27.0095 42.8025C28.5454 41.824 30.624 41.3281 33.1875 41.3281C34.2231 41.3281 35.0625 42.1675 35.0625 43.2031ZM62.625 39.5C65.7268 39.5 68.25 36.9768 68.25 33.875C68.25 30.7732 65.7268 28.25 62.625 28.25C59.5232 28.25 57 30.7732 57 33.875C57 36.9768 59.5232 39.5 62.625 39.5ZM62.625 32C63.6588 32 64.5 32.8412 64.5 33.875C64.5 34.9088 63.6588 35.75 62.625 35.75C61.5912 35.75 60.75 34.9088 60.75 33.875C60.75 32.8412 61.5912 32 62.625 32ZM60.75 64.0625V70.625C60.75 71.6606 59.9106 72.5 58.875 72.5C57.8394 72.5 57 71.6606 57 70.625V64.0625C57 63.0269 57.8394 62.1875 58.875 62.1875C59.9106 62.1875 60.75 63.0269 60.75 64.0625ZM72 48.5938V56.5625C72 58.6169 71.0186 60.5798 69.375 61.8125C68.6704 62.3409 68.25 63.1818 68.25 64.0625V70.625C68.25 71.6606 67.4106 72.5 66.375 72.5C65.3394 72.5 64.5 71.6606 64.5 70.625V64.0625C64.5 62.0081 65.4814 60.0452 67.125 58.8125C67.8296 58.2841 68.25 57.4432 68.25 56.5625V48.5938C68.25 47.6321 68.25 45.0781 62.8125 45.0781C61.7769 45.0781 60.9375 44.2388 60.9375 43.2031C60.9375 42.1675 61.7769 41.3281 62.8125 41.3281C65.376 41.3281 67.4546 41.824 68.9905 42.8025C70.9592 44.0564 72 46.0592 72 48.5938Z" fill="white"/>
<rect x="1.5" y="2" width="93" height="93" rx="46.5" stroke="white" stroke-width="3"/>
</svg>
