<svg width="12" height="13" viewBox="0 0 12 13" fill="none" xmlns="http://www.w3.org/2000/svg">
<path d="M1.39286 0C0.624929 0 0 0.624929 0 1.39286V10.9881C0 11.756 0.624929 12.381 1.39286 12.381H7.73809V12.3652C6.99802 12.2916 6.33505 11.9554 5.84105 11.4524H1.39286C1.13688 11.4524 0.928571 11.2441 0.928571 10.9881V1.39286C0.928571 1.13688 1.13688 0.928571 1.39286 0.928571H4.95238V3.55952C4.95238 4.32745 5.57731 4.95238 6.34524 4.95238H8.97619V6.33315C9.31512 6.43993 9.62712 6.60633 9.90476 6.81557V4.4881C9.90476 4.3598 9.85278 4.24383 9.76874 4.15983L5.74493 0.136021C5.6609 0.0520242 5.54481 0 5.41667 0H1.39286ZM5.88095 1.5851L8.31966 4.02381H6.34524C6.08926 4.02381 5.88095 3.8155 5.88095 3.55952V1.5851ZM8.04762 6.80952C6.68231 6.80952 5.57143 7.92041 5.57143 9.28572C5.57143 10.651 6.68231 11.7619 8.04762 11.7619C8.56298 11.7619 9.04125 11.6032 9.43806 11.3327L10.9694 12.864C11.06 12.955 11.1788 13 11.2976 13C11.4165 13 11.5352 12.9547 11.6259 12.864C11.807 12.6826 11.807 12.3888 11.6259 12.2074L10.0952 10.6762C10.3654 10.2793 10.5238 9.80107 10.5238 9.28572C10.5238 7.92041 9.41293 6.80952 8.04762 6.80952ZM8.04762 7.7381C8.90098 7.7381 9.59524 8.43236 9.59524 9.28572C9.59524 10.1391 8.90098 10.8333 8.04762 10.8333C7.19426 10.8333 6.5 10.1391 6.5 9.28572C6.5 8.43236 7.19426 7.7381 8.04762 7.7381Z" fill="white"/>
</svg>
