<svg width="128" height="128" viewBox="0 0 128 128" fill="none" xmlns="http://www.w3.org/2000/svg">
<path d="M89.2082 99.4725C87.6661 99.4725 86.4162 98.2226 86.4162 96.6807C86.4162 85.7506 77.5239 76.8583 66.5938 76.8583H62.4062C51.4761 76.8583 42.5838 85.7506 42.5838 96.6807C42.5838 98.2226 41.3339 99.4725 39.7918 99.4725C38.2498 99.4725 37 98.2226 37 96.6807C37 82.6718 48.3973 71.2745 62.4062 71.2745H66.5938C80.6027 71.2745 92 82.6718 92 96.6807C92 98.2226 90.7502 99.4725 89.2082 99.4725Z" fill="#B42816"/>
<path d="M64.2213 65.6903C53.8302 65.6903 45.3762 57.2363 45.3762 46.8453C45.3762 36.4539 53.8302 28 64.2213 28C74.6126 28 83.0665 36.4539 83.0665 46.8453C83.0665 57.2363 74.6126 65.6903 64.2213 65.6903ZM64.2213 33.5838C56.909 33.5838 50.9598 39.5328 50.9598 46.8453C50.9598 54.1575 56.909 60.1065 64.2213 60.1065C71.5337 60.1065 77.4827 54.1575 77.4827 46.8453C77.4827 39.5328 71.5337 33.5838 64.2213 33.5838Z" fill="#B42816"/>
</svg>
