<svg width="72" height="72" viewBox="0 0 72 72" fill="none" xmlns="http://www.w3.org/2000/svg">
<rect width="72" height="72" fill="#F8F9F9"/>
<path d="M48.2971 54.0001C47.5204 54.0001 46.8908 53.3705 46.8908 52.5939C46.8908 47.0884 42.4118 42.6094 36.9064 42.6094H34.797C29.2915 42.6094 24.8125 47.0884 24.8125 52.5939C24.8125 53.3705 24.1829 54.0001 23.4063 54.0001C22.6296 54.0001 22 53.3705 22 52.5939C22 45.5376 27.7407 39.7969 34.797 39.7969H36.9064C43.9626 39.7969 49.7034 45.5376 49.7034 52.5939C49.7034 53.3705 49.0738 54.0001 48.2971 54.0001Z" fill="#C4C4C4"/>
<path d="M35.7111 36.9845C30.477 36.9845 26.2188 32.7263 26.2188 27.4923C26.2188 22.2582 30.477 18 35.7111 18C40.9451 18 45.2034 22.2582 45.2034 27.4923C45.2034 32.7263 40.9451 36.9845 35.7111 36.9845ZM35.7111 20.8125C32.0279 20.8125 29.0313 23.8091 29.0313 27.4923C29.0313 31.1755 32.0279 34.172 35.7111 34.172C39.3943 34.172 42.3908 31.1755 42.3908 27.4923C42.3908 23.8091 39.3943 20.8125 35.7111 20.8125Z" fill="#C4C4C4"/>
</svg>
