<svg width="480" height="270" viewBox="0 0 480 270" fill="none" xmlns="http://www.w3.org/2000/svg">
<rect width="480" height="270" fill="#F8F9F9"/>
<path d="M273.014 99H207.521C203.38 99 200 102.38 200 106.521V147.507V163.479C200 167.62 203.38 171 207.521 171H273.014C277.155 171 280.535 167.62 280.535 163.479V106.521C280.535 102.38 277.155 99 273.014 99ZM276.732 163.479C276.732 165.507 275.042 167.197 272.93 167.197H207.521C205.408 167.197 203.718 165.507 203.718 163.394V148.183L224.93 126.549L244.113 148.606C244.789 149.366 245.803 149.451 246.648 148.944L262.197 137.958L276.732 148.437V163.479ZM276.817 143.873L263.296 134.155C262.62 133.648 261.775 133.648 261.099 134.155L245.887 144.972L226.451 122.662C226.113 122.239 225.606 122.07 225.099 121.986C224.592 121.986 224.085 122.155 223.662 122.577L203.718 142.859V106.521C203.718 104.493 205.408 102.803 207.521 102.803H273.014C275.127 102.803 276.817 104.493 276.817 106.606V143.873Z" fill="#C4C4C4"/>
<path d="M251.718 110.24C246.31 110.24 242 114.635 242 119.959C241.915 125.282 246.31 129.677 251.718 129.677C257.127 129.677 261.437 125.282 261.437 119.959C261.437 114.55 257.042 110.24 251.718 110.24ZM251.718 125.959C248.423 125.959 245.718 123.254 245.718 119.959C245.718 116.578 248.423 113.959 251.718 113.959C255.014 113.959 257.718 116.663 257.718 119.959C257.718 123.254 255.014 125.959 251.718 125.959Z" fill="#C4C4C4"/>
</svg>
